<?xml version="1.0" encoding="UTF-8"?>
<svg id="Layer_2" data-name="Layer 2" xmlns="http://www.w3.org/2000/svg" viewBox="0 0 24 35.17">
  <defs>
    <style>
      .cls-1 {
        stroke-width: 0px;
      }
    </style>
  </defs>
  <g id="logoer">
    <g id="logonav">
      <path class="cls-1" d="m.09.12C.03.15,0,.21,0,.27l.15,34.73c0,.09.08.17.17.17l23.51-.1c.09,0,.17-.08.17-.17L23.85.17c0-.06-.03-.12-.09-.15-.05-.03-.12-.03-.17,0l-4.07,2.58-15.14.07-2.15-1.33L.26.13s-.01,0-.02,0c-.05-.02-.11-.02-.16,0Zm19.62,3.32l3.06-1.93c.05-.03.12-.04.17,0,.05.03.09.09.09.15l.14,32.41c0,.09-.08.17-.17.17l-21.85.1c-.09,0-.17-.08-.17-.17L.84,1.75c0-.06.03-.12.09-.15.05-.03.12-.03.17,0l3.07,1.9,15.54-.07Z"/>
      <path class="cls-1" d="m1.18,2.06l.14,31.94,21.51-.09-.14-31.93-2.84,1.79s-.06.03-.09.03l-15.64.07s-.06,0-.09-.03l-2.85-1.77Zm18.72,2.06l2.52-1.58.14,30.94-20.93.09-.14-30.94,2.51,1.56s.06.03.09.03l15.71-.07s.06,0,.09-.03Z"/>
      <path class="cls-1" d="m6.99,19.99c.06-.1.09-.21.09-.33,0-.09-.02-.17-.05-.24-.03-.08-.08-.14-.13-.2-.06-.06-.12-.1-.2-.13-.08-.03-.16-.05-.24-.05h-.73s.01,2.34.01,2.34h.72s.02,0,.02,0c.09,0,.17-.02.24-.05.08-.03.14-.08.2-.13.06-.06.1-.12.13-.2.03-.08.05-.16.05-.24,0-.12-.03-.23-.09-.33-.06-.1-.14-.17-.24-.22.1-.05.18-.13.24-.23Z"/>
      <polygon class="cls-1" points="8.74 19.04 8.16 19.04 7.36 21.38 7.93 21.38 8.24 20.48 8.67 20.47 8.99 21.38 9.56 21.37 8.74 19.04"/>
      <path class="cls-1" d="m9.88,21.37h.53s0-.89,0-.89h0l.41.88h.54s-.45-.96-.45-.96c.12-.06.21-.15.29-.26.07-.11.11-.24.11-.39,0-.1-.02-.19-.06-.28-.04-.09-.09-.16-.16-.23-.07-.07-.14-.12-.23-.15-.09-.04-.18-.06-.28-.06h-.71s.01,2.34.01,2.34Z"/>
      <polygon class="cls-1" points="13.33 21.36 12.33 20.2 13.32 19.02 12.79 19.02 12.19 19.69 12.19 19.03 11.66 19.03 11.67 21.36 12.2 21.36 12.2 20.7 12.8 21.36 13.33 21.36"/>
      <rect class="cls-1" x="13.59" y="19.02" width=".53" height="2.34" transform="translate(-.08 .06) rotate(-.24)"/>
      <polygon class="cls-1" points="14.5 21.35 15.03 21.35 15.03 20.04 15.69 21.35 16.23 21.35 16.22 19.01 15.69 19.01 15.69 20.31 15.03 19.01 14.49 19.01 14.5 21.35"/>
      <path class="cls-1" d="m17.16,19.65s.07-.07.12-.09c.05-.02.09-.03.15-.03.05,0,.1.01.15.03s.09.05.12.09c.03.04.06.08.08.13.02.05.03.1.03.16h.53c0-.13-.02-.25-.07-.36-.05-.11-.11-.21-.19-.3-.09-.09-.19-.16-.3-.21-.11-.05-.23-.07-.35-.07h0c-.12,0-.24.03-.35.07-.11.05-.21.12-.29.21-.08.09-.15.19-.19.3-.04.11-.07.23-.07.36v.48c0,.12.03.24.07.35s.11.21.19.3c.09.09.18.16.29.21.11.05.23.07.35.07h0c.07,0,.14-.01.22-.03.07-.02.14-.05.2-.09v.12s.49,0,.49,0v-.88s0-.02,0-.03v-.25s-.91,0-.91,0v.49s.3,0,.3,0c-.04.05-.08.08-.13.11s-.1.04-.16.04c-.05,0-.1-.01-.15-.03-.05-.02-.09-.05-.12-.09s-.06-.08-.08-.13c-.02-.05-.03-.1-.03-.16v-.46c0-.06,0-.11.03-.16.02-.05.05-.09.08-.13Z"/>
      <polygon class="cls-1" points="9.64 12.67 5.7 12.69 5.71 14 7.02 13.99 7.04 18.47 8.35 18.47 8.33 13.98 9.64 13.98 9.64 12.67"/>
      <polygon class="cls-1" points="11.36 12.66 10.06 12.67 10.08 18.46 11.39 18.45 11.38 16.21 12.93 16.2 12.94 18.45 14.25 18.44 14.22 12.65 12.91 12.66 12.92 14.9 11.37 14.9 11.36 12.66"/>
      <polygon class="cls-1" points="18.31 12.63 14.76 12.65 14.78 18.44 18.33 18.42 18.32 17.11 16.08 17.12 16.08 16.19 17.73 16.18 17.72 14.88 16.07 14.88 16.07 13.95 18.31 13.94 18.31 12.63"/>
      <path class="cls-1" d="m6.82,27.48h.16c.32-.02.63-.1.92-.23.29-.13.56-.31.79-.54.25-.25.44-.54.57-.86.13-.32.19-.65.19-1,0-.35-.07-.69-.2-1-.13-.32-.33-.6-.58-.85-.25-.25-.54-.44-.87-.56-.32-.13-.66-.19-1.01-.19h-1.06s.02,5.25.02,5.25h1.06Z"/>
      <path class="cls-1" d="m9.84,25.38c0,.28.06.55.16.8.1.25.24.47.43.67.2.2.42.35.67.46s.51.16.78.16h0c.28,0,.54-.06.78-.17.25-.11.47-.27.66-.48.19-.2.33-.42.43-.67.1-.25.15-.51.15-.79v-.42s0-.65,0-.65v-.15c-.03-.25-.09-.48-.19-.7-.1-.22-.23-.42-.4-.6-.19-.2-.41-.36-.66-.46-.25-.11-.51-.16-.79-.16h0c-.28,0-.54.06-.78.17-.24.11-.46.26-.66.47-.16.18-.3.38-.4.6-.1.22-.16.46-.18.71v1.23Z"/>
      <path class="cls-1" d="m14.29,24.3v1.09c.01.27.06.53.17.78.1.25.24.47.43.66.19.2.41.35.66.46.25.11.51.16.79.16h0c.16,0,.33-.03.48-.08.16-.05.31-.12.45-.2v.27s1.09,0,1.09,0v-1.97s0-.05,0-.07,0-.05,0-.07v-.5s-2.05,0-2.05,0v1.09s.67,0,.67,0c-.08.1-.17.19-.28.25-.11.06-.23.09-.37.09-.12,0-.23-.02-.33-.07-.1-.05-.19-.12-.27-.2s-.14-.18-.18-.3c-.05-.11-.07-.23-.07-.36v-1.02c0-.13.02-.25.06-.36.04-.11.1-.21.18-.3.08-.08.17-.15.27-.2.1-.05.21-.07.33-.08.12,0,.23.02.33.07.1.05.19.12.27.2.08.08.14.18.18.29.05.11.07.23.07.36h1.18c0-.29-.05-.55-.15-.81-.1-.25-.25-.48-.44-.68-.2-.2-.42-.36-.67-.46-.25-.11-.51-.16-.78-.16h0c-.28,0-.54.06-.78.17s-.47.26-.66.47c-.19.2-.33.42-.43.67-.1.25-.15.52-.15.8Z"/>
      <polygon class="cls-1" points="5.68 11.71 7.21 8.92 4.13 8.93 5.68 11.71"/>
      <polygon class="cls-1" points="8.41 11.07 9.57 8.94 10.75 11.06 11.93 8.9 13.13 11.05 14.31 8.89 15.51 11.04 16.68 8.89 18.22 11.66 19.75 8.86 16.67 8.88 16.67 8.88 14.31 8.89 14.31 8.89 11.93 8.9 11.93 8.9 9.55 8.91 9.55 8.91 7.21 8.92 8.41 11.07"/>
      <polygon class="cls-1" points="4.23 31.26 7.3 31.24 5.75 28.46 4.23 31.26"/>
      <polygon class="cls-1" points="16.78 31.19 15.59 29.05 14.41 31.21 13.21 29.06 12.03 31.22 10.83 29.07 9.67 31.2 8.49 29.08 7.3 31.24 9.68 31.23 9.68 31.23 12.03 31.22 12.03 31.22 14.41 31.21 14.41 31.21 16.79 31.2 16.79 31.2 19.85 31.19 18.3 28.41 16.78 31.19"/>
      <path class="cls-1" d="m5.58,7.2c0-.4-.33-.73-.73-.72-.4,0-.73.33-.72.73,0,.4,1.46.4,1.46,0Z"/>
      <path class="cls-1" d="m19.74,7.14c0-.4-.33-.73-.73-.72-.4,0-.73.33-.72.73,0,.4,1.46.4,1.46,0Z"/>
    </g>
  </g>
</svg>