<?xml version="1.0" encoding="UTF-8"?>
<svg id="Layer_2" data-name="Layer 2" xmlns="http://www.w3.org/2000/svg" viewBox="0 0 140 126.08">
  <defs>
    <style>
      .cls-1, .cls-2, .cls-3, .cls-4 {
        stroke-width: 0px;
      }

      .cls-2 {
        fill: #31c0cc;
      }

      .cls-3 {
        fill: #fff6d7;
      }

      .cls-4 {
        fill: #ee3124;
      }
    </style>
  </defs>
  <g id="logoer">
    <g id="diamant">
      <path class="cls-3" d="m75.24,79.17c-1.98-3.76-5.29-7.39-8.49-10.91-1.88-2.06-3.65-4.01-5.03-5.84-1.07-1.43-2.2-2.95-3.41-4.5l.04-.46-.34.07c-3.2-4.09-6.89-8.36-11.06-11.69-1.7-2.17-4.52-4.8-8.39-5.16-2.68-.28-5.96.64-8.83,1.44-1.13.31-2.2.62-3.15.81-.81.16-1.78.31-2.83.47-4.38.66-9.84,1.49-12.68,4.44-2.23,2.3-2.55,6.3-2.83,9.84-.09,1.16-.18,2.27-.33,3.23-.46,2.87-.95,5.72-1.44,8.58-.26,1.52-.52,3.04-.77,4.58-.27.5-.35,1.05-.26,1.57-.8,4.85-1.57,9.8-2.19,14.81-.53,4.32-.6,8.88-.68,13.29-.1,6.16-.21,12.54-1.56,18.16l-1.01,4.19,2.9-.87c.68.31,1.48.31,2.19-.07.02-.01.05-.03.07-.04.58-.09,1.11-.38,1.51-.85.13-.07.25-.15.38-.23,10.09-2.63,20.71-3.48,31.02-4.3,2.57-.2,5.16-.41,7.76-.64.32.33.64.65.97.97.98.95,2.55.93,3.5-.06.39-.4.61-.9.68-1.42,6.69-.73,13.39-1.77,19.9-3.58,1.01.88,2.55.81,3.46-.19.28-.3.46-.66.56-1.03l.67-.21-.05-1.86c-.08-3.14.41-6.7.94-10.47.72-5.16,1.45-10.43.82-15.3.39-.44.62-1.03.6-1.66-.02-.98-.61-1.83-1.45-2.21-.32-.99-.71-1.96-1.2-2.89Zm-35.48,23.54c-.13-.2-.26-.39-.39-.59,4.6-2.5,9.02-5.23,12.24-8.77.79.96,1.58,1.92,2.36,2.88,4.06,4.96,8.22,10.06,12.76,14.72-6.16,1.49-12.54,2.34-18.91,2.96-2.93-3.36-5.43-7.19-8.05-11.21Zm-1.55-30.83c3.28-.98,6.25-2.81,9.16-4.6,1.8-1.11,3.54-2.18,5.28-3-.41,2.4-.98,4.85-1.58,7.39-.84,3.56-1.69,7.19-2.12,10.9-2.44-2.74-4.98-5.42-7.67-7.92-.94-.88-1.98-1.8-3.08-2.77Zm10.2,17.63c-2.81,3.32-7.19,5.99-11.79,8.48-1.97-2.88-4.06-5.7-6.43-8.25-1.02-1.1-2.08-2.17-3.19-3.24,1.8-4.01,3.75-8.23,5.86-12.71,1.84,1.59,3.57,3.1,5.05,4.48,3.72,3.47,7.18,7.31,10.5,11.24Zm-31.77,27.5c.5-.41,1-.82,1.49-1.22,2.58-2.12,5.26-4.31,8.02-6.24,2.51-1.75,5.57-3.38,8.83-5.09.21.32.43.65.64.97,1.98,3.03,4,6.12,6.24,9.03-1.4.11-2.79.22-4.18.34-6.94.55-14.02,1.11-21.04,2.22Zm-2.23-4.57c2.46-3.84,4.88-7.98,6.7-12.36,1.17-2.81,2.41-5.72,3.74-8.75.59.59,1.16,1.18,1.71,1.78,2.03,2.19,3.89,4.66,5.65,7.21-3.23,1.69-6.26,3.33-8.89,5.16-2.93,2.04-5.67,4.3-8.33,6.48-.2.16-.39.32-.58.48Zm-4.57-33.06c4.18,2.71,7.88,5.48,11.18,8.36-1.61,3.64-3.1,7.11-4.48,10.44-2.42,5.82-6.12,11.39-9.42,16.33.29-3.55.35-7.16.41-10.7.07-4.48.14-8.71.64-12.77.48-3.91,1.06-7.81,1.68-11.66Zm3.73-25.03c3.53,5.45,9.54,10.97,15.4,16.07-2.1,4.44-4.04,8.62-5.84,12.6-3.67-3.09-7.78-6.06-12.41-8.96.21-1.26.42-2.51.64-3.76.49-2.87.98-5.74,1.44-8.62.18-1.07.28-2.33.38-3.63.09-1.15.2-2.5.39-3.71Zm21.6-8.5c-.52,2.59-1.47,5.42-2.46,8.38-1.15,3.43-2.33,6.94-2.9,10.34-5.32-4.75-10.61-9.93-13.06-14.56,2.24-.88,5.42-1.37,7.75-1.72,1.14-.17,2.19-.33,3.07-.51,1.05-.22,2.24-.54,3.49-.89,1.34-.37,2.79-.78,4.11-1.03Zm17.57,13.03c-2.83,1.02-5.43,2.63-7.97,4.18-3.47,2.14-6.79,4.18-10.33,4.54.2-3.57,1.6-7.74,2.96-11.8,1.07-3.17,2.16-6.43,2.73-9.53,1.97,1.09,3.51,3.23,4.23,4.62.46.89,1.41,1.42,2.35,1.33,2.14,2.05,4.16,4.35,6.04,6.67Zm18.46,23.32c-3.79.56-7.57,1.68-11.26,2.78-2.18.65-4.27,1.27-6.33,1.77.08-4.65,1.19-9.36,2.27-13.94.59-2.53,1.2-5.12,1.64-7.71.07.1.15.2.22.3,1.52,2.02,3.37,4.05,5.33,6.2,2.99,3.29,6.08,6.69,7.77,9.88.12.24.24.48.35.72Zm.36,18.35c-.34,2.45-.69,4.96-.87,7.38-4.49-4.56-8.59-9.58-12.89-14.83-.52-.64-1.04-1.28-1.56-1.91,1.72-.46,3.44-.96,5.12-1.47,3.67-1.09,7.45-2.21,11.06-2.69.44,4.14-.22,8.88-.86,13.52Z"/>
      <path class="cls-2" d="m137.53,84.29c-.22,0-.43-.03-.65-.08-2.69-.73-5.75-.75-8.99-.78-3.23-.03-6.57-.05-9.77-.8-1.33-.31-2.16-1.64-1.85-2.97.31-1.33,1.65-2.15,2.97-1.85,2.67.62,5.59.65,8.68.67,3.41.03,6.94.06,10.24.95,1.32.36,2.1,1.72,1.75,3.04-.3,1.1-1.3,1.83-2.39,1.83Z"/>
      <path class="cls-4" d="m117.64,46.7c-5.32.37-10.02,2.56-14.99,4.87-1.17.55-2.35,1.1-3.55,1.63-.33.15-.67.21-1,.21-.95,0-1.86-.55-2.27-1.47-.55-1.25,0-2.71,1.26-3.27,1.17-.52,2.32-1.05,3.47-1.59,5.16-2.4,10.49-4.89,16.73-5.32,1.36-.04,2.55.93,2.64,2.3.09,1.36-.93,2.55-2.3,2.64Z"/>
      <path class="cls-1" d="m77.32,37.39l-1.21,1.4c-.49.57-1.18.86-1.88.86-.57,0-1.15-.2-1.62-.6-1.03-.89-1.15-2.46-.26-3.49l1.22-1.4c3.66-4.21,8.2-9.46,10.59-14.18.61-1.22,2.11-1.71,3.32-1.1,1.22.62,1.71,2.11,1.1,3.32-2.66,5.27-7.43,10.77-11.27,15.19Z"/>
      <path class="cls-4" d="m18.79,22.66h0c-1.36,0-2.47-1.1-2.48-2.47,0-2.29-.19-4.64-.36-6.98-.27-3.61-.55-7.35-.24-10.95.12-1.36,1.26-2.36,2.68-2.25,1.36.12,2.37,1.32,2.25,2.68-.28,3.2-.03,6.57.24,10.14.19,2.47.37,4.93.38,7.34,0,1.37-1.1,2.48-2.47,2.48Z"/>
      <path class="cls-2" d="m49.93,23.15c.28.78.15,1.68-.41,2.38-.49.61-1.21.92-1.93.92-.54,0-1.1-.18-1.55-.55-1.79-1.44-1.2-3.67.75-11.07.94-3.57,2.23-8.46,2.14-10.12-.07-1.37.98-2.53,2.35-2.6,1.41-.06,2.53.98,2.6,2.35.12,2.27-.84,6.08-2.3,11.64-.66,2.5-1.55,5.87-1.65,7.05Z"/>
    </g>
  </g>
</svg>