<?xml version="1.0" encoding="UTF-8"?>
<svg id="Layer_2" data-name="Layer 2" xmlns="http://www.w3.org/2000/svg" viewBox="0 0 40 40">
  <defs>
    <style>
      .cls-1 {
        fill: #fff6d7;
        fill-rule: evenodd;
        stroke-width: 0px;
      }
    </style>
  </defs>
  <g id="logoer">
    <path class="cls-1" d="m34.55,0c3.01,0,5.45,2.44,5.45,5.45v29.09c0,3.01-2.44,5.45-5.45,5.45H5.45c-3.01,0-5.45-2.44-5.45-5.45V5.45C0,2.44,2.44,0,5.45,0h29.09Zm0,3.64c1,0,1.82.81,1.82,1.82v29.09c0,1-.81,1.82-1.82,1.82h-9.09v-12.73h3.77c.78,0,1.48-.5,1.72-1.24l.81-2.42c.29-.88-.36-1.79-1.29-1.79h-5.01v-3.64c0-.91.91-1.82,1.82-1.82h3.64c1,0,1.82-.81,1.82-1.82v-1.25c0-.59-.38-1.11-.94-1.26-2.38-.63-4.51-.63-4.51-.63-4.55,0-7.27,3.14-7.27,5.87v4.55h-3.64c-1,0-1.82.81-1.82,1.82v1.82c0,1,.81,1.82,1.82,1.82h3.64v12.73H5.45c-1,0-1.82-.81-1.82-1.82V5.45c0-1,.81-1.82,1.82-1.82h29.09Z"/>
  </g>
</svg>