<?xml version="1.0" encoding="UTF-8"?>
<svg id="Layer_2" data-name="Layer 2" xmlns="http://www.w3.org/2000/svg" viewBox="0 0 120 123.65">
  <defs>
    <style>
      .cls-1 {
        fill: #31c0cc;
      }

      .cls-1, .cls-2, .cls-3 {
        stroke-width: 0px;
      }

      .cls-2 {
        fill: #fff6d7;
      }

      .cls-3 {
        fill: #ee3124;
      }
    </style>
  </defs>
  <g id="logoer">
    <g>
      <path class="cls-1" d="m101.43,72.58c.06.89.76,1.63,1.63,1.83,2.46.57,5.02.59,7.49.6,2.47.02,4.81.04,6.85.58.18.05.36.07.53.07,1.09,0,2.07-.87,2.07-2.11,0-.97-.78-1.75-1.72-1.99-2.5-.64-5.14-.65-7.7-.67-2.36-.02-4.6-.03-6.62-.5-1.33-.32-2.62.72-2.53,2.18Z"/>
      <path class="cls-1" d="m87.68,52.03c.28,0,.56-.06.84-.18.92-.41,1.84-.84,2.74-1.26,3.73-1.74,7.26-3.39,11.23-3.71.78-.06,1.53-.44,1.87-1.15.77-1.6-.62-3.11-1.99-2.97-4.8.34-8.9,2.25-12.86,4.1-.86.4-1.72.8-2.59,1.19-.9.4-1.48,1.37-1.27,2.34.22,1.02,1.1,1.64,2.02,1.64Z"/>
      <path class="cls-2" d="m32.18,123.65c1.06,0,2.14-.04,3.26-.13,18.92-1.42,44.15-15.23,51.91-28.42,4.1-6.96,4.72-14.41,1.69-20.43-3.03-6.03-9.46-9.99-17.62-10.86-5.92-.65-11.9,1.05-17.32,3.49-2.12-9.76-11.23-19.65-21.98-23.2-9.94-3.27-19.25-.52-25.52,7.58C-5.26,66.98.14,100.24,12.71,115.72c4.23,5.21,10.92,7.93,19.47,7.93ZM10.79,54.93c4.14-5.36,9.07-6.85,13.28-6.85,2.47,0,4.7.52,6.37,1.07,9.46,3.12,17.67,12.32,18.7,20.64-2.72,1.49-5.22,3.04-7.39,4.39-1.28.8-2.46,1.54-3.53,2.16-1.27.74-1.7,2.36-.95,3.63.74,1.26,2.36,1.69,3.63.95,1.11-.65,2.33-1.41,3.66-2.24,7.2-4.48,17.03-10.6,26.28-9.59,6.44.69,11.22,3.52,13.46,7.97,2.2,4.38,1.65,9.97-1.52,15.35-6.2,10.54-28.88,24.41-47.73,25.82-5.8.45-13.64-.23-18.2-5.85C5.54,98.47.58,68.11,10.79,54.93Z"/>
      <path class="cls-1" d="m8.56,20.18c0,1.46,1.19,2.64,2.66,2.64h.01c1.47,0,2.65-1.2,2.64-2.67-.01-2.39-.2-4.83-.38-7.28-.27-3.52-.52-6.85-.25-10,.12-1.46-.95-2.75-2.42-2.87-1.43-.12-2.75.95-2.87,2.42-.31,3.58-.03,7.28.25,10.86.18,2.32.36,4.63.37,6.9Z"/>
      <path class="cls-3" d="m38.06,25.95c.49.39,1.08.58,1.66.58.78,0,1.55-.34,2.07-1,.59-.73.72-1.68.44-2.5.11-1.19.97-4.47,1.61-6.91,1.45-5.51,2.39-9.29,2.27-11.56-.07-1.46-1.35-2.59-2.79-2.51-1.46.08-2.59,1.33-2.51,2.79.08,1.61-1.18,6.42-2.1,9.93-1.95,7.43-2.54,9.67-.65,11.18Z"/>
      <path class="cls-1" d="m66.06,39.56c.75,0,1.49-.31,2.01-.92l1.19-1.38c3.8-4.38,8.52-9.84,11.16-15.09.65-1.31.12-2.91-1.18-3.56-1.31-.66-2.91-.13-3.57,1.18-2.33,4.65-6.82,9.83-10.42,13.99l-1.2,1.39c-.96,1.11-.83,2.79.28,3.74.5.43,1.12.64,1.73.64Z"/>
    </g>
  </g>
</svg>