<?xml version="1.0" encoding="UTF-8"?>
<svg id="Layer_2" data-name="Layer 2" xmlns="http://www.w3.org/2000/svg" viewBox="0 0 120 175.85">
  <defs>
    <style>
      .cls-1 {
        fill: #fff6d7;
        stroke-width: 0px;
      }
    </style>
  </defs>
  <g id="ROJO_BARKING" data-name="ROJO BARKING">
    <g>
      <path class="cls-1" d="m.44.62C.17.77,0,1.06,0,1.37l.76,173.63c0,.47.39.85.86.85l117.54-.51c.47,0,.85-.39.85-.86L119.24.85c0-.31-.17-.6-.44-.75-.27-.15-.6-.14-.87.03l-20.35,12.9-75.69.33-10.77-6.66L1.3.64s-.05-.02-.08-.04c-.25-.12-.54-.12-.79.02Zm98.11,16.58l15.28-9.64c.26-.17.59-.18.87-.03.27.15.44.43.44.75l.71,162.07c0,.47-.38.85-.85.86l-109.25.48c-.47,0-.86-.38-.86-.85L4.18,8.75c0-.31.17-.6.44-.75.27-.15.6-.14.87.02l15.36,9.51,77.7-.34Z"/>
      <path class="cls-1" d="m5.9,10.29l.7,159.68,107.54-.47-.7-159.67-14.18,8.95c-.14.08-.29.13-.45.13l-78.19.34c-.16,0-.32-.04-.45-.13L5.9,10.29Zm93.6,10.3l12.62-7.91.68,154.7-104.63.46L7.48,13.14l12.57,7.79c.14.08.29.13.45.13l78.54-.34c.16,0,.31-.05.45-.13Z"/>
      <path class="cls-1" d="m34.96,99.97c.3-.49.45-1.03.45-1.63,0-.43-.08-.83-.25-1.21-.16-.38-.39-.7-.66-.98-.28-.28-.61-.5-.99-.66-.38-.16-.78-.24-1.21-.24h-3.66s.05,11.7.05,11.7l3.58-.02h.08c.43,0,.83-.08,1.21-.25.38-.17.7-.39.98-.67.28-.28.5-.61.66-.99.16-.38.24-.78.24-1.21,0-.6-.16-1.14-.46-1.63-.31-.49-.71-.86-1.21-1.12.5-.26.9-.64,1.2-1.13Z"/>
      <polygon class="cls-1" points="43.69 95.2 40.8 95.21 36.79 106.92 39.64 106.91 41.19 102.38 43.36 102.37 44.95 106.88 47.79 106.87 43.69 95.2"/>
      <path class="cls-1" d="m49.38,106.86h2.64s-.02-4.44-.02-4.44h.03l2.06,4.42h2.72s-2.24-4.82-2.24-4.82c.6-.31,1.07-.75,1.44-1.32.37-.57.54-1.22.54-1.93,0-.5-.1-.97-.29-1.41-.19-.44-.45-.82-.78-1.15-.33-.33-.72-.58-1.17-.77-.44-.19-.92-.28-1.42-.28h-3.57s.05,11.7.05,11.7Z"/>
      <polygon class="cls-1" points="66.63 106.79 61.64 100.98 66.59 95.1 63.95 95.11 60.97 98.47 60.95 95.13 58.31 95.14 58.36 106.82 61 106.81 60.99 103.5 63.99 106.8 66.63 106.79"/>
      <rect class="cls-1" x="67.94" y="95.09" width="2.64" height="11.69" transform="translate(-.42 .29) rotate(-.24)"/>
      <polygon class="cls-1" points="72.52 106.76 75.16 106.75 75.13 100.22 78.46 106.74 81.13 106.73 81.08 95.04 78.44 95.05 78.46 101.57 75.15 95.06 72.47 95.07 72.52 106.76"/>
      <path class="cls-1" d="m85.81,98.27c.17-.19.37-.34.6-.45.23-.11.47-.17.73-.17.26,0,.51.05.74.16s.43.26.61.44c.17.19.31.41.41.66.1.25.15.52.15.8h2.64c0-.64-.12-1.24-.34-1.8-.23-.57-.55-1.07-.97-1.52-.44-.45-.94-.79-1.49-1.03-.55-.24-1.13-.36-1.74-.35h-.02c-.62,0-1.2.13-1.75.37-.55.24-1.04.59-1.46,1.04-.42.44-.74.94-.96,1.5-.22.56-.33,1.15-.33,1.78v2.42c.02.61.14,1.18.37,1.73s.55,1.04.96,1.48c.43.45.92.79,1.47,1.03.55.24,1.14.36,1.75.36h.02c.37,0,.72-.06,1.08-.17.35-.11.68-.26.99-.45v.59s2.44,0,2.44,0l-.02-4.38c.01-.05.02-.11.02-.16v-1.27s-4.56.02-4.56.02v2.43s1.49,0,1.49,0c-.18.23-.39.42-.63.55s-.52.21-.82.21c-.26,0-.51-.05-.73-.16-.23-.11-.43-.26-.6-.44s-.31-.41-.41-.66c-.1-.25-.15-.52-.15-.8v-2.28c-.01-.28.04-.55.13-.8.1-.25.23-.47.41-.66Z"/>
      <polygon class="cls-1" points="48.19 63.35 28.5 63.44 28.53 69.98 35.1 69.95 35.2 92.35 41.74 92.33 41.64 69.92 48.22 69.89 48.19 63.35"/>
      <polygon class="cls-1" points="56.82 63.31 50.29 63.34 50.41 92.29 56.95 92.26 56.9 81.06 64.64 81.02 64.69 92.23 71.23 92.2 71.1 63.25 64.56 63.28 64.61 74.49 56.87 74.52 56.82 63.31"/>
      <polygon class="cls-1" points="91.53 63.16 73.79 63.24 73.91 92.19 91.65 92.11 91.62 85.57 80.42 85.62 80.4 80.95 88.65 80.92 88.62 74.38 80.37 74.42 80.35 69.75 91.56 69.7 91.53 63.16"/>
      <path class="cls-1" d="m34.1,137.39h.78c1.62-.1,3.16-.48,4.62-1.13,1.47-.65,2.78-1.56,3.95-2.71,1.26-1.27,2.22-2.7,2.87-4.29.65-1.59.97-3.26.96-5.02,0-1.76-.34-3.43-1.01-5.02-.67-1.58-1.63-3-2.91-4.27-1.27-1.24-2.72-2.18-4.33-2.82-1.61-.64-3.3-.95-5.06-.94l-5.28.02.11,26.21,5.28-.02Z"/>
      <path class="cls-1" d="m49.21,126.89c.03,1.41.3,2.74.81,3.98.51,1.25,1.22,2.36,2.15,3.34.99,1,2.1,1.77,3.34,2.31s2.53.8,3.9.79h.03c1.39,0,2.7-.28,3.92-.83,1.23-.55,2.33-1.34,3.29-2.38.93-.99,1.65-2.11,2.13-3.36.49-1.25.74-2.56.76-3.95v-2.11s-.02-3.24-.02-3.24v-.77c-.13-1.25-.44-2.42-.94-3.52-.5-1.1-1.17-2.1-2.02-2.98-.97-1.01-2.07-1.78-3.31-2.31-1.23-.53-2.55-.8-3.93-.79h-.03c-1.39,0-2.69.28-3.91.83-1.22.55-2.32,1.32-3.3,2.34-.82.9-1.48,1.9-1.98,3-.5,1.11-.81,2.28-.92,3.53l.03,6.13Z"/>
      <path class="cls-1" d="m71.44,121.48l.02,5.43c.03,1.36.3,2.66.81,3.89.51,1.23,1.22,2.34,2.15,3.32.97,1,2.07,1.77,3.3,2.31,1.24.53,2.54.8,3.93.79h.04c.82,0,1.63-.13,2.41-.38.79-.25,1.53-.59,2.23-1.01v1.34s5.47-.02,5.47-.02l-.04-9.83c.02-.12.03-.23.03-.35s0-.23,0-.35v-2.5s-10.23.04-10.23.04l.02,5.46h3.31c-.4.51-.87.92-1.42,1.23-.55.31-1.17.46-1.85.46-.59,0-1.13-.12-1.64-.36-.51-.24-.95-.58-1.34-1s-.7-.91-.92-1.48c-.23-.56-.34-1.16-.34-1.79l-.02-5.11c0-.63.11-1.23.33-1.8.22-.56.52-1.06.91-1.48.38-.42.83-.76,1.33-1.01.5-.25,1.05-.37,1.63-.38.59,0,1.14.12,1.66.36.52.24.97.58,1.36,1,.39.42.7.91.92,1.47.23.56.34,1.16.34,1.8l5.92-.03c0-1.41-.26-2.75-.77-4.01-.51-1.27-1.24-2.4-2.18-3.41-.99-1.01-2.1-1.78-3.34-2.31-1.24-.53-2.53-.8-3.9-.79h-.04c-1.39,0-2.69.28-3.92.83s-2.33,1.32-3.28,2.34c-.94.99-1.65,2.11-2.15,3.36-.5,1.25-.75,2.58-.74,3.98Z"/>
      <polygon class="cls-1" points="28.41 58.56 36.04 44.59 20.66 44.65 28.41 58.56"/>
      <polygon class="cls-1" points="42.03 55.34 47.85 44.7 53.75 55.29 59.65 44.49 65.65 55.24 71.55 44.43 77.55 55.19 83.41 44.45 91.12 58.28 98.75 44.31 83.37 44.38 83.37 44.38 71.55 44.43 71.55 44.43 59.65 44.48 59.65 44.49 47.75 44.54 47.75 44.54 36.04 44.59 42.03 55.34"/>
      <polygon class="cls-1" points="21.14 156.28 36.52 156.21 28.77 142.31 21.14 156.28"/>
      <polygon class="cls-1" points="83.9 155.94 77.94 145.25 72.04 156.06 66.04 145.3 60.14 156.11 54.14 145.36 48.33 156 42.43 145.41 36.52 156.21 48.42 156.16 48.42 156.16 60.14 156.11 60.14 156.11 72.04 156.06 72.04 156.06 83.94 156.01 83.94 156.01 99.24 155.94 91.49 142.04 83.9 155.94"/>
      <path class="cls-1" d="m27.9,36.02c0-2.01-1.65-3.63-3.65-3.62-2.01,0-3.63,1.65-3.62,3.65,0,2.01,7.29,1.98,7.28-.03Z"/>
      <path class="cls-1" d="m98.69,35.71c0-2.01-1.65-3.63-3.65-3.62-2.01,0-3.63,1.65-3.62,3.65,0,2.01,7.29,1.98,7.28-.03Z"/>
    </g>
  </g>
</svg>