<?xml version="1.0" encoding="UTF-8"?>
<svg id="Layer_2" data-name="Layer 2" xmlns="http://www.w3.org/2000/svg" viewBox="0 0 332 202.82">
  <defs>
    <style>
      .cls-1 {
        fill: #fff6d7;
        stroke-width: 0px;
      }
    </style>
  </defs>
  <g id="ROJO_BARKING" data-name="ROJO BARKING">
    <g>
      <path class="cls-1" d="m120.29.52c-.23.13-.37.37-.36.63l.63,145.38c0,.4.32.71.72.71l98.41-.43c.39,0,.71-.32.71-.72l-.63-145.38c0-.26-.14-.5-.37-.62-.23-.13-.51-.12-.72.02l-17.04,10.8-63.37.28-9.02-5.57-8.22-5.08s-.04-.02-.07-.03c-.21-.1-.45-.1-.66.01Zm82.15,13.88l12.79-8.07c.22-.14.5-.15.72-.02.23.13.37.36.37.62l.59,135.7c0,.39-.32.72-.71.72l-91.47.4c-.4,0-.72-.32-.72-.71l-.59-135.7c0-.26.14-.5.36-.63.23-.13.51-.12.73.02l12.86,7.96,65.06-.28Z"/>
      <path class="cls-1" d="m124.86,8.61l.58,133.7,90.04-.39-.58-133.69-11.87,7.5c-.11.07-.25.11-.38.11l-65.47.29c-.13,0-.26-.04-.38-.11l-11.94-7.39Zm78.37,8.62l10.56-6.62.57,129.53-87.6.38-.57-129.53,10.53,6.53c.11.07.25.11.38.11l65.76-.29c.13,0,.26-.04.38-.11Z"/>
      <path class="cls-1" d="m149.19,83.71c.25-.41.38-.86.38-1.36,0-.36-.07-.7-.21-1.01-.14-.32-.32-.59-.56-.82-.23-.23-.51-.42-.82-.55-.32-.13-.65-.2-1.01-.2h-3.06s.04,9.8.04,9.8h3s.07-.01.07-.01c.36,0,.7-.07,1.01-.21.32-.14.59-.32.82-.56.23-.23.42-.51.55-.82.13-.32.2-.65.2-1.01,0-.5-.13-.95-.39-1.36-.26-.41-.59-.72-1.02-.94.42-.22.75-.54,1.01-.95Z"/>
      <polygon class="cls-1" points="156.5 79.71 154.08 79.72 150.73 89.52 153.11 89.51 154.41 85.72 156.23 85.71 157.56 89.49 159.94 89.48 156.5 79.71"/>
      <path class="cls-1" d="m161.27,89.48h2.21s-.02-3.72-.02-3.72h.03l1.73,3.7h2.28s-1.87-4.04-1.87-4.04c.5-.26.9-.63,1.2-1.1.31-.48.46-1.02.45-1.62,0-.42-.08-.81-.24-1.18-.16-.37-.38-.69-.65-.96-.28-.27-.6-.49-.98-.65-.37-.16-.77-.23-1.19-.23h-2.99s.04,9.8.04,9.8Z"/>
      <polygon class="cls-1" points="175.71 89.41 171.53 84.55 175.68 79.63 173.47 79.64 170.97 82.45 170.96 79.65 168.75 79.66 168.79 89.44 171 89.43 170.99 86.66 173.5 89.42 175.71 89.41"/>
      <rect class="cls-1" x="176.81" y="79.62" width="2.21" height="9.79" transform="translate(-.35 .75) rotate(-.24)"/>
      <polygon class="cls-1" points="180.64 89.39 182.85 89.38 182.83 83.91 185.61 89.37 187.85 89.36 187.81 79.57 185.6 79.58 185.62 85.04 182.85 79.6 180.6 79.61 180.64 89.39"/>
      <path class="cls-1" d="m191.77,82.28c.14-.16.31-.28.5-.38.19-.09.39-.14.61-.14.22,0,.42.04.62.14s.36.22.51.37c.15.16.26.34.34.55.08.21.13.43.13.67h2.21c0-.54-.1-1.04-.29-1.51-.19-.47-.46-.9-.82-1.27-.37-.38-.79-.66-1.25-.86-.46-.2-.95-.3-1.45-.3h-.01c-.52,0-1.01.11-1.47.31-.46.2-.87.49-1.23.87-.35.37-.62.79-.8,1.25-.19.46-.28.96-.27,1.49v2.03c.02.51.12.99.31,1.45s.46.87.8,1.24c.36.38.77.66,1.23.86.46.2.95.3,1.47.3h.01c.31,0,.61-.05.9-.14.29-.1.57-.22.83-.38v.5s2.04,0,2.04,0l-.02-3.67s.01-.09.01-.13v-1.07s-3.82.02-3.82.02v2.04s1.25,0,1.25,0c-.15.19-.33.35-.53.46s-.44.17-.69.17c-.22,0-.42-.04-.61-.14-.19-.09-.36-.21-.5-.37s-.26-.34-.34-.55c-.08-.21-.13-.43-.13-.67v-1.91c0-.24.03-.46.11-.67.08-.21.2-.4.34-.55Z"/>
      <polygon class="cls-1" points="160.27 53.05 143.78 53.12 143.81 58.59 149.31 58.57 149.4 77.33 154.87 77.3 154.79 58.54 160.29 58.52 160.27 53.05"/>
      <polygon class="cls-1" points="167.5 53.01 162.03 53.04 162.13 77.27 167.61 77.25 167.56 67.87 174.05 67.84 174.09 77.22 179.56 77.2 179.46 52.96 173.98 52.98 174.02 62.37 167.54 62.39 167.5 53.01"/>
      <polygon class="cls-1" points="196.56 52.89 181.7 52.95 181.81 77.19 196.66 77.12 196.64 71.65 187.26 71.69 187.24 67.78 194.15 67.75 194.12 62.28 187.22 62.31 187.2 58.4 196.58 58.36 196.56 52.89"/>
      <path class="cls-1" d="m148.48,115.03h.65c1.36-.09,2.65-.4,3.87-.95,1.23-.55,2.33-1.3,3.31-2.27,1.06-1.07,1.86-2.26,2.4-3.59.55-1.33.81-2.73.81-4.21,0-1.48-.29-2.87-.84-4.2-.56-1.33-1.37-2.51-2.43-3.57-1.07-1.04-2.28-1.82-3.62-2.36-1.35-.53-2.76-.8-4.24-.79l-4.42.02.1,21.94,4.42-.02Z"/>
      <path class="cls-1" d="m161.12,106.25c.02,1.18.25,2.29.68,3.33.43,1.04,1.03,1.97,1.8,2.8.83.84,1.76,1.49,2.8,1.93s2.12.67,3.26.66h.03c1.16,0,2.26-.23,3.29-.69,1.03-.46,1.95-1.12,2.75-1.99.78-.83,1.38-1.76,1.79-2.81.41-1.04.62-2.14.63-3.31v-1.77s-.02-2.71-.02-2.71v-.65c-.11-1.04-.37-2.02-.78-2.95-.42-.92-.98-1.76-1.69-2.5-.81-.84-1.73-1.49-2.77-1.94-1.03-.45-2.13-.67-3.29-.66h-.03c-1.16,0-2.25.24-3.27.69-1.02.46-1.94,1.11-2.76,1.96-.69.75-1.24,1.59-1.66,2.51-.42.93-.68,1.91-.77,2.95l.02,5.13Z"/>
      <path class="cls-1" d="m179.74,101.71l.02,4.54c.02,1.14.25,2.23.68,3.26.43,1.03,1.03,1.96,1.8,2.78.81.84,1.73,1.49,2.77,1.93,1.03.45,2.13.67,3.29.66h.03c.69,0,1.36-.11,2.02-.32.66-.21,1.28-.49,1.87-.85v1.12s4.58-.02,4.58-.02l-.04-8.23c.02-.1.03-.2.03-.3s0-.2,0-.3v-2.09s-8.56.04-8.56.04l.02,4.57h2.77c-.33.42-.73.77-1.19,1.03-.46.26-.98.39-1.55.39-.49,0-.95-.1-1.37-.3-.42-.2-.8-.48-1.12-.84s-.58-.76-.77-1.24c-.19-.47-.28-.97-.29-1.5l-.02-4.28c0-.53.09-1.03.27-1.51.18-.47.44-.89.76-1.24.32-.36.7-.64,1.12-.84.42-.21.88-.31,1.37-.32.49,0,.95.1,1.39.3.43.2.81.48,1.14.84.33.35.58.76.77,1.23.19.47.28.97.29,1.5l4.95-.02c0-1.18-.22-2.3-.65-3.36-.43-1.06-1.04-2.01-1.83-2.85-.83-.84-1.76-1.49-2.8-1.94-1.03-.45-2.12-.67-3.26-.66h-.03c-1.16,0-2.25.24-3.28.69s-1.95,1.11-2.75,1.96c-.78.83-1.38,1.77-1.8,2.81-.42,1.05-.62,2.16-.62,3.33Z"/>
      <polygon class="cls-1" points="143.71 49.03 150.09 37.33 137.22 37.39 143.71 49.03"/>
      <polygon class="cls-1" points="155.12 46.34 159.98 37.43 164.93 46.3 169.87 37.25 174.89 46.25 179.83 37.2 184.85 46.21 189.76 37.22 196.22 48.8 202.6 37.1 189.73 37.16 189.73 37.16 179.83 37.2 179.83 37.2 169.87 37.25 169.87 37.25 159.91 37.29 159.91 37.29 150.09 37.33 155.12 46.34"/>
      <polygon class="cls-1" points="137.63 130.85 150.5 130.8 144.01 119.16 137.63 130.85"/>
      <polygon class="cls-1" points="190.17 130.56 185.18 121.62 180.24 130.67 175.22 121.66 170.28 130.71 165.26 121.71 160.39 130.62 155.44 121.75 150.5 130.8 160.47 130.75 160.47 130.75 170.28 130.71 170.28 130.71 180.24 130.67 180.24 130.67 190.2 130.62 190.2 130.62 203.01 130.57 196.52 118.93 190.17 130.56"/>
      <path class="cls-1" d="m143.28,30.16c0-1.68-1.38-3.04-3.06-3.03-1.68,0-3.04,1.38-3.03,3.06,0,1.68,6.1,1.66,6.09-.03Z"/>
      <path class="cls-1" d="m202.55,29.9c0-1.68-1.38-3.04-3.06-3.03-1.68,0-3.04,1.38-3.03,3.06,0,1.68,6.1,1.66,6.09-.03Z"/>
      <path class="cls-1" d="m57.7,80c-.26.12-.45.38-.45.69,0,.2.07.38.19.52-.2,1.52.03,3.16.26,4.77.16,1.18.32,2.29.29,3.27l-.02.58.21.07c.03.12.09.23.18.32.28.31.77.34,1.08.06,2.03.56,4.12.89,6.21,1.12.02.16.09.32.21.44.3.31.79.32,1.09.02.1-.1.2-.2.3-.3.81.07,1.62.14,2.42.2,3.22.26,6.53.52,9.68,1.34.04.02.08.05.12.07.12.15.29.24.47.27,0,0,.02,0,.02.01.22.12.47.12.68.02l.9.27-.31-1.31c-.42-1.75-.46-3.74-.49-5.67-.02-1.38-.05-2.8-.21-4.15-.19-1.56-.43-3.11-.68-4.62.03-.16,0-.33-.08-.49-.08-.48-.16-.96-.24-1.43-.15-.89-.3-1.78-.45-2.68-.05-.3-.08-.65-.1-1.01-.09-1.1-.19-2.35-.88-3.07-.89-.92-2.59-1.18-3.96-1.38-.33-.05-.63-.1-.88-.15-.29-.06-.63-.15-.98-.25-.9-.25-1.92-.54-2.75-.45-1.21.11-2.09.93-2.62,1.61-1.3,1.04-2.45,2.37-3.45,3.65l-.11-.02v.14c-.37.48-.72.96-1.05,1.4-.43.57-.98,1.18-1.57,1.82-1,1.1-2.03,2.23-2.65,3.4-.15.29-.28.59-.38.9Zm8.93,9.94c-1.99-.2-3.98-.46-5.9-.92,1.41-1.45,2.71-3.04,3.98-4.59.24-.3.49-.6.74-.9,1.01,1.1,2.38,1.95,3.82,2.73-.04.06-.08.12-.12.18-.82,1.25-1.6,2.45-2.51,3.5Zm2.04-12.25c-.84.78-1.63,1.62-2.39,2.47-.13-1.16-.4-2.29-.66-3.4-.19-.79-.37-1.56-.49-2.3.54.26,1.09.59,1.65.94.91.56,1.83,1.13,2.86,1.43-.34.3-.67.59-.96.86Zm1.05,1.13c.46-.43,1-.9,1.57-1.4.66,1.4,1.27,2.71,1.83,3.96-.35.33-.68.67-1,1.01-.74.8-1.39,1.68-2.01,2.57-1.43-.78-2.8-1.61-3.68-2.64,1.04-1.22,2.12-2.42,3.28-3.51Zm.07,11.39c-.43-.03-.87-.07-1.3-.1.7-.91,1.33-1.87,1.95-2.82.07-.1.13-.2.2-.3,1.02.53,1.97,1.04,2.75,1.59.86.6,1.7,1.29,2.5,1.95.15.13.31.25.47.38-2.19-.34-4.4-.52-6.57-.69Zm7.08-.88c-.83-.68-1.69-1.38-2.6-2.02-.82-.57-1.77-1.08-2.77-1.61.55-.8,1.13-1.57,1.76-2.25.17-.19.35-.37.53-.55.41.95.8,1.85,1.17,2.73.57,1.36,1.32,2.66,2.09,3.85-.06-.05-.12-.1-.18-.15Zm2.13-6.53c.15,1.27.18,2.59.2,3.99.02,1.1.04,2.23.13,3.34-1.03-1.54-2.18-3.28-2.94-5.09-.43-1.04-.9-2.12-1.4-3.26,1.03-.9,2.18-1.76,3.49-2.61.19,1.2.37,2.41.52,3.64Zm-1.57-10.29c.03.41.06.8.12,1.13.14.9.3,1.79.45,2.69.07.39.13.78.2,1.17-1.44.9-2.73,1.83-3.87,2.79-.56-1.24-1.17-2.55-1.82-3.93,1.83-1.59,3.7-3.31,4.8-5.01.06.38.09.8.12,1.16Zm-5.58-3.49c.39.11.76.21,1.09.28.27.06.6.11.96.16.73.11,1.72.26,2.42.54-.76,1.44-2.41,3.06-4.07,4.54-.18-1.06-.54-2.15-.9-3.22-.31-.92-.6-1.8-.77-2.61.41.08.86.21,1.28.32Zm-4.88,1.66c.29.03.59-.14.73-.41.22-.43.7-1.1,1.32-1.44.18.97.52,1.98.85,2.97.42,1.26.86,2.56.92,3.68-1.11-.11-2.14-.75-3.22-1.41-.79-.49-1.6-.99-2.49-1.31.59-.72,1.21-1.44,1.88-2.08Zm-7.53,9.13c.53-1,1.49-2.06,2.42-3.08.61-.67,1.19-1.3,1.66-1.93.02-.03.05-.06.07-.09.14.81.33,1.62.51,2.41.34,1.43.68,2.9.71,4.35-.64-.16-1.29-.35-1.97-.55-1.15-.34-2.33-.69-3.51-.87.03-.08.07-.15.11-.22Zm-.49,1.73c1.13.15,2.3.5,3.45.84.53.16,1.06.31,1.6.46-.16.2-.33.4-.49.6-1.34,1.64-2.62,3.21-4.02,4.63-.06-.76-.16-1.54-.27-2.3-.2-1.45-.41-2.93-.27-4.22Z"/>
      <path class="cls-1" d="m323.26,124.54c-1.99.19-3.82.97-5.48,2.35,2.38-7.16,4.28-17.49-1.17-24.06-5.44-6.54-18-7.35-25.87-3.99-3.38,1.44-7.07,3.77-9.96,6.84-.12.04-.24.12-.33.22l-.43.5c-2.18,2.54-4.43,5.17-7.24,6.71-3.78,2.07-6.74,2.67-8.56,1.75-2.68-1.36-3.5-5.75-2.29-8.38.74-1.61,2.23-2.12,3.37-2.07,1.17.06,2.62.72,3.22,2.41.37,1.06.18,2.45-.91,3.06-.41.23-1.35.1-1.68-.23-.07-.07-.14-.14.01-.41.21-.37.08-.84-.29-1.05-.37-.21-.84-.08-1.05.29-.46.81-.37,1.66.24,2.27.83.83,2.51,1.06,3.53.49,1.61-.91,2.29-2.98,1.61-4.92-.71-2.02-2.47-3.34-4.6-3.44-2.12-.11-3.96,1.04-4.84,2.97-1.5,3.26-.5,8.63,2.99,10.4,2.32,1.19,5.69.59,10-1.77,1.08-.59,2.08-1.33,3.03-2.16-.26.7-.47,1.42-.62,2.16-1.11,5.21.04,8.82,3.34,10.45,2.69,1.33,7.32.49,9.92-1.79,1.78-1.57,2.36-3.57,1.65-5.64-.71-2.06-2.32-3.3-3.93-3-1.17.22-2.38,1.35-2.28,3.87.02.43.33.74.8.74.43-.02.76-.38.74-.8-.05-1.29.34-2.16,1.03-2.29.67-.13,1.68.52,2.18,1.98.64,1.85-.3,3.18-1.21,3.98-2.1,1.86-6.09,2.62-8.21,1.57-3.28-1.62-3.18-5.65-2.51-8.74,1.49-6.98,8.16-12.09,13.91-14.54,7.37-3.14,19.07-2.46,24.08,3.56,2.88,3.47,3.49,8.17,3.06,12.84-.28-1.05-.73-2.12-1.42-3.28-1.12-1.87-2.24-3.44-4.64-3.73-1.8-.22-6.24-.46-8.78,2.13-2.27,2.33-3.41,5.46-2.89,7.97.27,1.32,1.12,3.12,3.67,4.19,2.15.9,5.31,0,6.75-1.92,1.03-1.38.95-2.99-.21-4.43-.54-.67-1.56-1.24-2.46-1.04-.62.14-1.08.64-1.25,1.35-.1.41.16.83.58.93.42.1.83-.16.93-.58.03-.13.07-.18.08-.19.1-.05.62.11.93.5.71.88.77,1.73.17,2.53-1,1.34-3.44,2.04-4.92,1.42-1.55-.65-2.47-1.68-2.76-3.07-.41-1.99.59-4.64,2.49-6.58,2.11-2.16,6.26-1.83,7.48-1.68,1.72.21,2.5,1.32,3.51,3,1.73,2.88,1.74,5.05,1.56,8.27,0,.14.02.27.08.39-.65,2.53-1.46,4.85-2.2,6.73-.05.13-.11.26-.16.39-.44.63-.87,1.31-1.27,2.04-.09.17-.12.36-.08.53-6.55,10.12-21.84,7.07-36.22,2.57-11.88-3.72-22.36-9.64-31.92-15.49-8.95-5.48-14.29-11.14-16.79-17.83-2.86-7.66-3.64-13.82,1.9-18.99,1.29-1.21,2.8-2.28,4.42-3.11.11,0,.22-.04.33-.1.16-.1.33-.19.5-.29,3.86-1.73,8.21-2,11.64.76,4.03,3.24,3.4,8.44,1.63,11.91-2.01,3.94-6.25,7.31-11.22,5.97-2.71-.74-3.54-3.21-3.77-4.23-.45-2.01,0-4.07,1.1-5,.69-.59,1.59-.66,2.67-.23.39.16.84-.03,1-.43.16-.4-.03-.85-.43-1-1.61-.65-3.11-.48-4.24.48-1.54,1.3-2.18,3.92-1.6,6.51.61,2.75,2.39,4.71,4.87,5.39,5.8,1.58,10.7-2.25,13-6.75,2.19-4.3,2.41-10.23-2.04-13.81-2.63-2.11-5.7-2.69-8.72-2.28,3.29-2.68,6.23-6.13,6.81-9.65.28-1.69-.35-3.41-1.74-4.7-1.67-1.56-4.11-2.24-6.22-1.74-2.22.52-6.96,3.99-7.6,7.35-.29,1.5.26,2.78,1.59,3.71,2.1,1.46,3.33.58,3.76.13.93-.96,1.13-2.88.39-3.88-.47-.63-1.21-.78-1.94-.4-.38.2-.54.63-.34,1.01.2.38.65.49,1.03.3.2.19.29,1.24-.19,1.83-.35.44-.97.35-1.83-.25-.82-.57-1.12-1.26-.95-2.15.5-2.59,4.62-5.7,6.44-6.13,1.59-.38,3.53.17,4.81,1.37.59.55,1.53,1.71,1.27,3.32-.67,4.08-5.38,8.53-9.92,11.28-2.05.93-3.95,2.24-5.54,3.73-6.53,6.09-4.96,13.53-2.3,20.66,2.01,5.36,5.7,10.07,11.45,14.52-2.21-.11-4.52.48-5.94,1.47-4.1,2.84-7.56,9.31-7.72,14.43-.12,3.94,4.1,7.37,7.13,8.54,1.08.42,2.31.62,3.58.62,2.08,0,4.26-.55,6.06-1.6,2.22-1.29,3.62-3.2,3.95-5.38.3-1.98-.19-3.95-1.38-5.55-1.21-1.62-2.98-2.68-5-2.98-2.6-.4-5.28,1.91-5.84,4.13-.38,1.52.31,2.81,1.82,3.34.4.15.84-.06.99-.47.14-.4-.07-.84-.47-.99-.76-.27-1.03-.75-.84-1.51.38-1.53,2.38-3.26,4.12-2.98,1.61.24,3.02,1.08,3.98,2.37.94,1.27,1.33,2.83,1.09,4.4-.33,2.19-1.92,3.53-3.2,4.27-2.48,1.44-5.9,1.8-8.3.87-2.64-1.02-6.24-4.03-6.14-7.05.14-4.6,3.38-10.65,7.06-13.2,2.16-1.5,7.23-1.84,8.95.57.25.35.73.43,1.08.18,0,0,.01,0,.02-.02.33.21.66.41,1,.62,9.64,5.9,20.23,11.88,32.27,15.65,9.76,3.06,32.46,10.17,39.39-5.86,2.02-2.83,4.39-4.38,7.04-4.63,2.55-.25,4.63.36,5.84,1.7,1.1,1.22,1.46,3.02,1.03,5.22-.61,3.16-4.86,6.42-7.91,6.87-1.41.21-2.49-.3-3.04-1.46-.69-1.44-.45-3.81,1.14-5.29.85-.79,2.18-.63,2.84,0,.68.64.31,1.39-.11,1.9-.27.33-.23.81.1,1.09.33.27.82.23,1.09-.1,1.37-1.65.85-3.19-.01-4.01-1.18-1.12-3.41-1.44-4.96-.02-1.93,1.79-2.57,4.84-1.49,7.1.85,1.76,2.59,2.63,4.66,2.31,3.63-.54,8.44-4.2,9.2-8.1.52-2.7.04-4.97-1.4-6.56-1.55-1.71-4.08-2.49-7.13-2.2Z"/>
      <path class="cls-1" d="m268.2,97.41c.31,0,.62-.01.95-.04,5.5-.41,12.84-4.43,15.1-8.27,1.19-2.02,1.37-4.19.49-5.94-.88-1.75-2.75-2.91-5.13-3.16-1.72-.19-3.46.31-5.04,1.01-.62-2.84-3.27-5.72-6.39-6.75-2.89-.95-5.6-.15-7.42,2.2-3.45,4.45-1.87,14.12,1.78,18.63,1.23,1.52,3.18,2.31,5.66,2.31Zm-6.22-19.99c1.2-1.56,2.64-1.99,3.86-1.99.72,0,1.37.15,1.85.31,2.75.91,5.14,3.58,5.44,6-.79.43-1.52.88-2.15,1.28-.37.23-.72.45-1.03.63-.37.21-.49.69-.28,1.06.21.37.69.49,1.06.28.32-.19.68-.41,1.06-.65,2.1-1.3,4.95-3.08,7.64-2.79,1.87.2,3.26,1.02,3.91,2.32.64,1.27.48,2.9-.44,4.46-1.8,3.07-8.4,7.1-13.88,7.51-1.69.13-3.97-.07-5.29-1.7-3.29-4.05-4.73-12.88-1.76-16.71Z"/>
      <path class="cls-1" d="m238.98,176.42c-1.09-.28-2.76-.19-3.84.65-.65.51-.99,1.2-.99,2.02,0,.88.71,2.19,1.64,2.55.6.25,1.22.09,1.69-.4.29-.31.29-.78-.02-1.07-.31-.29-.79-.26-1.09.05-.22-.05-.67-.76-.67-1.12,0-.34.13-.59.4-.8.62-.48,1.76-.57,2.52-.38,2.08.53,2.21,2.34,2.17,3.1-.1,1.73-1.33,3.67-3.22,3.94-1.42.2-3.15-.49-4.53-1.79-1.36-1.28-2.1-2.89-1.98-4.3.21-2.58,2.17-3.82,4.37-5.03.91-.24,1.78-.7,2.59-1.35,2.06-1.67,3.55-4.61,3.69-7.32.21-4.01-.85-7.19-3.26-9.74-4.8-5.09-16-2.8-18.2-2.29-4.66,1.08-9.9,3.86-15.59,8.25-1.17.9-2.36,2.01-3.46,3.26-.01-1.12-.23-2.27-.65-3.43-1.24-3.39-4.48-6.79-8.93-6.79h-.05c-4.57.03-10.43,5.67-12.15,9.45-2.47,5.44-1.13,12.28,3.41,17.43.98,1.11,2.76,2.34,4.58,2.89.06.08.13.15.22.2.56.34,1.14.65,1.73.98,1.73.94,3.52,1.92,4.8,3.52.9,1.13,1.21,2.81.81,4.38-.36,1.43-1.26,2.54-2.45,3.04-1.21.51-2.52.07-3.1-.66-.51-.64-.45-1.46.17-2.3.44-.61,2.09-1.39,2.54-1.08.09.06.18.15.17.36,0,.18-.08.35-.15.47-.25-.14-.56-.14-.81.03-.35.24-.45.72-.21,1.07.29.44.77.65,1.25.55.75-.15,1.28-.96,1.42-1.68.17-.85-.14-1.62-.82-2.07-1.39-.94-3.88.41-4.64,1.46-1.03,1.41-1.08,2.97-.13,4.17.75.95,1.95,1.47,3.2,1.47.58,0,1.16-.11,1.71-.35,1.64-.7,2.86-2.18,3.35-4.08.52-2.06.11-4.19-1.1-5.72-1.34-1.69-3.07-2.71-4.78-3.65.97-.33,2.13-1.2,2.47-3.41.16-1.04-.24-2.29-1.02-3.18-.65-.75-1.48-1.11-2.34-1.13-.92.02-1.63.46-1.94,1.23-.31.74-.16,1.66.35,2.19.4.41.97.54,1.5.34.39-.15.58-.57.44-.97-.12-.36-.49-.57-.87-.5-.04-.1-.07-.29,0-.46.03-.07.11-.27.55-.28.51-.03.95.37,1.15.6.48.55.75,1.34.66,1.93-.19,1.25-.7,1.97-1.54,2.22-1.81.54-4.76-1.16-5.99-2.56-4.14-4.7-5.38-10.89-3.16-15.78,1.52-3.36,6.95-8.52,10.75-8.55,3.73-.05,6.46,2.89,7.52,5.78.7,1.9.74,3.76.18,5.36-.5.73-.95,1.48-1.36,2.25-.2.22-.42.43-.65.63-1.42,1.19-3.39,1.76-4.66,1.35-.8-.26-1.34-.9-1.59-1.89-.33-1.31-.25-2.22.23-2.44.53-.25,1.49.16,1.83.65.13.19.09.24.02.31-.3.3-.3.79,0,1.09.3.3.79.3,1.09,0,.63-.64.69-1.51.15-2.28-.72-1.03-2.47-1.75-3.74-1.17-.72.33-1.82,1.32-1.08,4.22.49,1.92,1.69,2.68,2.62,2.98,1.49.48,3.2.1,4.62-.64-.41,1.31-.62,2.64-.56,3.93.13,3.04,1.66,5.52,4.54,7.37,3.35,2.15,10.05,2.98,13.37-.54,1.94-2.06,2.86-5.14,2.24-7.49-.33-1.24-1.21-2.87-3.57-3.6-1.59-.49-3.46-.31-4.89.49-1.12.63-1.88,1.57-2.18,2.73-.27,1.03.08,2.13.9,2.87.68.62,1.54.84,2.23.58.37-.14,1.02-.54,1.16-1.66.05-.42-.25-.81-.67-.86-.42-.06-.81.24-.86.67-.03.25-.11.38-.16.4-.1.04-.38-.03-.66-.28-.15-.13-.62-.63-.44-1.33.24-.94.91-1.48,1.43-1.77,1.05-.59,2.5-.73,3.68-.36,1.35.42,2.21,1.27,2.54,2.52.49,1.86-.28,4.34-1.87,6.03-2.52,2.68-8.2,2.36-11.41.3-2.43-1.56-3.72-3.63-3.83-6.14-.08-1.87.51-3.88,1.5-5.83.59-.69,1.06-1.47,1.38-2.3,1.41-2.05,3.19-3.92,4.98-5.3,5.51-4.25,10.56-6.93,15-7.96,5.67-1.32,13.45-1.62,16.72,1.84,2.1,2.22,3.02,5.04,2.84,8.6-.12,2.3-1.38,4.79-3.12,6.2-.16.13-.34.26-.54.39-.17-.03-.35,0-.51.09l-.81.45c-.1.06-.21.11-.31.17-.55.13-1.17.17-1.84.06-2.18-.34-5.58-3.47-5.74-5.82-.04-.53.12-.97.47-1.36.85-.93,2.69-1.39,4.14-1.42.8-.02,2.22.08,2.49.95.21.65-.26,1.68-.97,2.15-.59.39-.9.13-1,.04-.32-.27-.81-.24-1.09.09-.28.32-.24.81.09,1.09.81.69,1.88.72,2.86.07,1.15-.76,2.06-2.43,1.59-3.9-.25-.79-1.1-2.1-4.01-2.03-1.73.04-4.01.57-5.25,1.93-.63.7-.94,1.56-.87,2.51.21,3,3.87,6.48,6.66,7.16-1.5,1.11-2.7,2.57-2.89,4.84-.15,1.87.76,3.95,2.46,5.55,1.73,1.64,3.9,2.46,5.8,2.19,2.78-.39,4.42-3.06,4.55-5.38.13-2.33-1.15-4.12-3.33-4.68Z"/>
      <path class="cls-1" d="m163.64,169.72c.17-4.15.35-8.45-2.2-12.16-2.7-3.93-8.59-4.54-10.99-4.62l-.44-.02c-2.95-.1-6.62-.23-9.33,1.54-2.11,1.38-4.27,4.58-4.81,7.49-.94-1.32-2.02-2.6-3.35-3.67l-.73-.6c-2.01-1.64-4.08-3.34-6.55-4.37-2.49-1.04-4.92-1.49-7.65-1.41-1.48.04-2.73.23-4,.99-.49.29-1.02.58-1.55.88-1.21.66-2.45,1.35-3.49,2.18-1.58,1.27-3.13,3.32-3.91,4.43-1.02,1.46-2.74,4.21-2.7,6.3.03,1.83,1.27,3.14,2.37,4.29.2.21.4.42.58.62,1.29,1.45,2.91,2.29,4.73,2.5.09.07.2.12.32.14,2.22.41,4.59,2.01,4.54,4.54-.03,1.68-.84,4.04-2.27,5.08-.72.53-1.5.66-2.37.4-.85-.25-1.58-1.24-1.75-2.36-.08-.54-.08-1.54.82-2.12.38-.25,1.33-.27,1.71-.05.13.08.19.26.2.4-.07.06-.13.14-.17.22-.2.38-.05.84.33,1.04.44.22.95.06,1.2-.4.35-.64.23-2-.77-2.59-.88-.53-2.48-.49-3.35.08-1.16.76-1.73,2.12-1.5,3.64.25,1.71,1.42,3.2,2.84,3.62,1.33.4,2.61.17,3.72-.64,1.94-1.42,2.86-4.26,2.9-6.3.04-2.26-1.25-3.96-2.95-5,.4-.11.8-.24,1.21-.39,2.68-1.02,6.66-5.07,6.46-8.37-.07-1.24-.76-2.87-3.58-3.57-1.98-.49-3.62.29-4.27,2.06-.54,1.46-.33,2.67.56,3.24.6.38,1.09.36,1.38.27.28-.08.66-.3.9-.84.17-.39-.02-.83-.41-1-.36-.16-.77,0-.97.31-.02-.01-.04-.02-.07-.04-.21-.13-.18-.75.06-1.4.5-1.35,1.75-1.26,2.45-1.09,2.32.58,2.39,1.77,2.42,2.16.14,2.3-3.06,5.92-5.47,6.83-2.19.83-5.31,1.26-7.69-1.41-.19-.22-.4-.43-.61-.66-.94-1-1.92-2.03-1.94-3.26-.02-1.19.88-3.2,2.42-5.38.59-.84,2.13-2.93,3.62-4.12.93-.75,2.12-1.4,3.27-2.03.55-.3,1.09-.6,1.6-.9.99-.59,1.98-.73,3.25-.77,2.53-.07,4.7.32,7.01,1.29,2.26.95,4.25,2.57,6.17,4.15l.74.6c1.87,1.51,3.26,3.55,4.42,5.45.36,1.32,1.1,2.49,2.13,3.39.59.97,1.06,1.95,1.22,3.18.25,1.88.39,4.57-.41,6.63-1.15,2.94-5.44,7.55-8.55,6.37-1.13-.42-1.71-1.17-1.73-2.22-.04-1.63,1.31-3.64,2.88-4.32,1.21-.52,1.57-.02,1.69.14.51.69.4,2.05-.07,2.61-.16.19-.31.27-.64.1-.38-.19-.85-.03-1.03.35-.19.38-.03.85.35,1.04.92.46,1.86.27,2.51-.5.97-1.16,1.02-3.31.12-4.52-.37-.49-1.44-1.53-3.54-.63-2.16.92-3.87,3.51-3.82,5.77.04,1.69,1.01,2.98,2.73,3.63,4.35,1.65,9.24-3.93,10.54-7.26.92-2.37.78-5.34.5-7.4-.08-.57-.21-1.09-.37-1.58,2.05.75,4.33.62,6.28-.39,3.04-1.58,4.92-4.74,4.68-7.87-.17-2.29-1.69-3.64-4-3.7-1.7,0-3.03.7-3.64,1.92-.32.63-.56,2.31-.02,3.18.24.38.63.6,1.04.59.43,0,.77-.36.76-.79,0-.34-.23-.62-.53-.72-.1-.36-.03-1.24.13-1.56.47-.94,1.66-1.08,2.29-1.07,1.48,0,2.33.78,2.44,2.27.19,2.52-1.36,5.08-3.86,6.38-1.77.92-3.99.91-5.79-.02-.35-.18-.68-.4-.98-.64-.2-.32-.4-.63-.61-.95-.3-.46-.61-.93-.91-1.43-.12-.19-.23-.39-.35-.59-.04-.17-.07-.35-.1-.53-.35-2.63,2.02-6.62,4.21-8.05,2.3-1.5,5.56-1.39,8.43-1.29l.44.02c2.17.07,7.47.6,9.77,3.95,2.26,3.29,2.1,7.32,1.93,11.23-.19,4.66-2.17,7.96-4.72,11.79-.92,1.38-2.58,3.17-4.28,4.2-.16.02-.31.08-.43.19-.05.04-.09.08-.14.12-.59.3-1.18.48-1.73.51-.81.06-1.49-.27-2.07-.97-.7-.85-.61-2.11-.28-3.01.48-1.34,1.07-1.35,1.6-1.25.25.05.55.33.75.71.22.41.24.76.3.77,0,0-.05.01-.16-.01-.42-.08-.82.19-.91.61-.08.42.19.83.61.91.87.16,1.34-.21,1.55-.44.41-.48.49-1.22.2-2.04-.28-.81-.99-1.82-2.06-2.02-1.09-.21-2.54.02-3.34,2.25-.47,1.3-.57,3.17.55,4.51.68.82,1.51,1.32,2.45,1.48-.12.09-.25.18-.37.28-2.99,2.2-6.07,4.48-7.12,8.41-.43,1.59-.06,3.2,1.02,4.41,1,1.13,2.45,1.75,4.01,1.75.27,0,.55-.02.83-.06,1.74-.25,3.51-1.61,4.29-3.32.6-1.32.55-2.65-.17-3.76-.58-.9-1.78-1.59-2.85-1.65-.75-.04-1.41.24-1.84.78-.71.89-.49,2.15.02,2.93.52.81,1.11.76,1.33.7.21-.05.7-.26.77-1.07.03-.43-.29-.78-.71-.81-.08,0-.16,0-.24.02-.09-.27-.13-.6.04-.81.05-.06.17-.24.55-.2.63.03,1.36.52,1.63.94.53.83.33,1.7.06,2.28-.56,1.22-1.89,2.26-3.1,2.44-1.34.19-2.64-.25-3.46-1.19-.73-.83-.97-1.89-.68-2.98.91-3.41,3.78-5.52,6.55-7.57.97-.72,1.98-1.46,2.88-2.25,2.17-1.15,4.18-3.34,5.25-4.94,2.69-4.04,4.77-7.53,4.98-12.59Z"/>
      <path class="cls-1" d="m261.33,67.31c0,.43.35.77.77.77h0c.43,0,.77-.35.77-.78,0-.69-.06-1.41-.11-2.12-.08-1.02-.15-1.99-.07-2.91.04-.42-.28-.8-.7-.84-.41-.03-.8.28-.84.7-.09,1.04,0,2.12.07,3.16.05.67.1,1.35.11,2.01Z"/>
      <path class="cls-1" d="m269.91,68.99c.14.11.31.17.48.17.23,0,.45-.1.6-.29.17-.21.21-.49.13-.73.03-.35.28-1.3.47-2.01.42-1.6.69-2.7.66-3.36-.02-.43-.39-.75-.81-.73-.43.02-.75.39-.73.81.02.47-.34,1.87-.61,2.89-.57,2.16-.74,2.81-.19,3.25Z"/>
      <path class="cls-1" d="m278.05,72.95c.22,0,.43-.09.59-.27l.35-.4c1.1-1.28,2.48-2.86,3.24-4.39.19-.38.04-.85-.34-1.04-.38-.19-.85-.04-1.04.34-.68,1.35-1.98,2.86-3.03,4.07l-.35.4c-.28.32-.24.81.08,1.09.15.13.33.19.5.19Z"/>
      <path class="cls-1" d="m38.64,80.69c.07,0,.14,0,.2-.03.84-.23,1.79-.23,2.8-.24,1.01,0,2.05-.02,3.05-.25.42-.1.67-.51.58-.93-.1-.41-.51-.67-.93-.58-.83.19-1.74.2-2.71.21-1.06,0-2.16.02-3.19.3-.41.11-.66.54-.54.95.09.34.4.57.75.57Z"/>
      <path class="cls-1" d="m44.85,68.97c1.66.12,3.12.8,4.68,1.52.37.17.73.34,1.11.51.1.05.21.07.31.07.3,0,.58-.17.71-.46.17-.39,0-.85-.39-1.02-.37-.16-.72-.33-1.08-.5-1.61-.75-3.27-1.52-5.22-1.66-.42-.01-.79.29-.82.72-.03.43.29.79.72.82Z"/>
      <path class="cls-1" d="m57.42,66.06l.38.44c.15.18.37.27.59.27.18,0,.36-.06.5-.19.32-.28.36-.77.08-1.09l-.38-.44c-1.14-1.31-2.56-2.95-3.3-4.42-.19-.38-.66-.53-1.04-.34-.38.19-.53.66-.34,1.04.83,1.64,2.32,3.36,3.51,4.74Z"/>
      <path class="cls-1" d="m75.68,61.47h0c.43,0,.77-.34.77-.77,0-.71.06-1.45.11-2.18.09-1.13.17-2.29.07-3.42-.04-.42-.39-.74-.84-.7-.42.04-.74.41-.7.84.09,1,0,2.05-.08,3.16-.06.77-.12,1.54-.12,2.29,0,.43.34.77.77.77Z"/>
      <path class="cls-1" d="m108.2,140.8c3.27-1.27,7.82-4.96,7.68-9.2-.17-5.43-4-12.56-8.36-15.59-1.58-1.1-4.16-1.74-6.61-1.56,6.31-4.86,10.36-10,12.54-15.85,2.88-7.71,4.56-15.76-2.5-22.33-1.73-1.61-3.8-3.02-6.02-4.03-4.93-2.98-10.05-7.82-10.79-12.26-.29-1.77.74-3.05,1.39-3.65,1.4-1.31,3.52-1.92,5.28-1.51,1.98.47,6.5,3.86,7.04,6.7.19,1-.14,1.76-1.06,2.4-.99.69-1.7.77-2.1.22-.51-.69-.39-1.86-.12-1.98.38.19.84.05,1.04-.33.2-.38.05-.84-.33-1.04-.76-.4-1.54-.24-2.02.42-.78,1.06-.58,3.1.42,4.12.46.47,1.77,1.41,4-.15,1.41-.99,2-2.36,1.69-3.96-.7-3.62-5.81-7.34-8.2-7.91-2.27-.53-4.89.21-6.69,1.89-1.48,1.39-2.16,3.22-1.85,5.03.64,3.86,3.92,7.65,7.55,10.56-3.35-.5-6.74.11-9.64,2.44-4.8,3.86-4.55,10.27-2.18,14.9,2.48,4.85,7.78,8.99,14.03,7.28,2.67-.73,4.57-2.84,5.23-5.8.62-2.79-.08-5.6-1.73-6.99-1.21-1.02-2.82-1.2-4.54-.51-.4.16-.59.61-.43,1.01.16.4.61.59,1.01.43,1.2-.48,2.19-.4,2.96.26,1.2,1.02,1.7,3.27,1.22,5.48-.25,1.13-1.15,3.83-4.13,4.64-5.42,1.48-10.05-2.19-12.25-6.49-1.93-3.78-2.63-9.45,1.78-13,3.74-3.01,8.47-2.73,12.68-.85.19.11.37.22.55.33.11.06.23.1.34.1,1.77.9,3.41,2.07,4.82,3.38,6.04,5.63,5.21,12.33,2.1,20.66-2.71,7.27-8.5,13.43-18.22,19.39-10.36,6.35-21.73,12.79-34.63,16.85-15.64,4.91-32.26,8.24-39.39-2.79.04-.18.02-.38-.08-.56-.44-.79-.9-1.53-1.38-2.21-.06-.14-.12-.29-.18-.44-.81-2.04-1.7-4.57-2.41-7.32.07-.12.1-.26.09-.41-.2-3.51-.19-5.86,1.69-9.01,1.1-1.83,1.95-3.05,3.85-3.29,1.33-.17,5.87-.52,8.17,1.83,2.07,2.12,3.17,5.01,2.72,7.19-.31,1.53-1.33,2.67-3.02,3.38-1.63.69-4.31-.09-5.42-1.56-.67-.89-.61-1.84.19-2.82.31-.38.83-.61,1.06-.57.08.02.12.17.14.26.1.41.51.67.93.58.42-.1.67-.51.58-.93-.24-1.02-.92-1.32-1.3-1.41-.95-.22-2.03.39-2.61,1.1-1.24,1.54-1.32,3.26-.22,4.72,1.53,2.03,4.98,3.01,7.25,2.06,2.17-.91,3.53-2.47,3.94-4.5.55-2.7-.68-6.07-3.13-8.58-2.72-2.78-7.52-2.52-9.46-2.28-2.57.32-3.78,2.01-4.99,4.03-.83,1.38-1.33,2.64-1.63,3.88-.54-5.19.08-10.46,3.29-14.33,5.44-6.56,18.17-7.32,26.19-3.91,6.25,2.66,13.51,8.21,15.14,15.8.73,3.38.84,7.78-2.75,9.56-2.36,1.17-6.64.36-8.98-1.7-1-.87-2.03-2.35-1.33-4.38.56-1.64,1.65-2.34,2.44-2.2.78.15,1.22,1.12,1.17,2.55-.02.43.32.79.74.8.43-.02.79-.32.8-.74.1-2.69-1.19-3.9-2.43-4.13-1.69-.32-3.42,1-4.18,3.21-.77,2.22-.14,4.37,1.77,6.05,2.8,2.46,7.79,3.36,10.69,1.93,3.55-1.76,4.78-5.65,3.58-11.27-.19-.89-.45-1.74-.77-2.57,1.08.96,2.23,1.82,3.47,2.5,4.66,2.54,8.28,3.18,10.79,1.91,3.75-1.92,4.82-7.69,3.2-11.2-.95-2.07-2.92-3.29-5.2-3.17-2.28.11-4.17,1.53-4.92,3.69-.73,2.07,0,4.28,1.72,5.25,1.08.61,2.87.37,3.75-.52.64-.64.73-1.53.24-2.38-.21-.37-.68-.5-1.05-.29-.37.21-.5.68-.29,1.05.19.34.09.45,0,.52-.38.38-1.42.53-1.9.26-1.21-.68-1.43-2.22-1.02-3.4.65-1.87,2.25-2.6,3.54-2.66,1.25-.06,2.9.51,3.72,2.28,1.33,2.88.43,7.68-2.5,9.18-1.99,1.02-5.22.36-9.34-1.89-3.06-1.67-5.51-4.53-7.88-7.28l-.47-.55c-.09-.11-.21-.19-.34-.23-3.13-3.33-7.13-5.85-10.8-7.41-8.52-3.62-22.11-2.73-27.99,4.34-5.95,7.18-3.78,18.5-1.16,26.25-1.84-1.57-3.87-2.47-6.09-2.67-3.29-.3-6.02.54-7.68,2.38-1.55,1.71-2.07,4.15-1.5,7.06.83,4.21,6.02,8.15,9.93,8.73,2.25.34,4.07-.57,4.99-2.48,1.16-2.42.47-5.7-1.61-7.62-1.6-1.48-4.02-1.18-5.29.02-.91.87-1.46,2.5,0,4.26.27.32.76.37,1.09.1.33-.27.37-.76.1-1.09-.69-.83-.73-1.57-.12-2.15.74-.7,2.23-.88,3.18,0,1.76,1.62,2.02,4.23,1.26,5.82-.61,1.28-1.81,1.84-3.37,1.62-3.33-.5-7.97-4.05-8.65-7.5-.47-2.41-.08-4.39,1.13-5.72,1.33-1.47,3.6-2.14,6.39-1.87,2.9.27,5.49,1.97,7.7,5.06,7.52,17.31,32.09,9.59,42.66,6.27,13.06-4.11,24.53-10.6,34.97-17,.38-.23.75-.47,1.12-.7.02.02.04.03.06.04.35.25.83.16,1.08-.18,1.88-2.65,7.44-2.28,9.8-.65,4.01,2.78,7.54,9.36,7.7,14.37.1,3.12-3.4,6.43-6.69,7.71-2.63,1.02-6.36.63-9.07-.94-1.4-.81-3.14-2.28-3.5-4.67-.26-1.72.16-3.43,1.19-4.82,1.05-1.42,2.6-2.34,4.36-2.6,1.9-.27,4.12,1.6,4.54,3.28.22.86-.08,1.41-.95,1.71-.4.14-.61.59-.47.99.14.4.59.6.99.47,1.62-.58,2.34-1.9,1.92-3.54-.59-2.34-3.52-4.83-6.27-4.43-2.17.32-4.08,1.46-5.38,3.21-1.27,1.72-1.8,3.84-1.48,5.97.36,2.34,1.87,4.39,4.26,5.78,1.95,1.13,4.29,1.72,6.53,1.72,1.37,0,2.7-.22,3.87-.68Z"/>
      <path class="cls-1" d="m65.97,61.62c-.09.24-.05.53.13.74.15.19.38.29.6.29.17,0,.34-.06.48-.17.56-.45.37-1.15-.23-3.45-.29-1.11-.7-2.64-.67-3.16.02-.43-.31-.79-.73-.81-.44-.02-.79.31-.81.73-.04.71.26,1.9.72,3.63.21.78.48,1.83.51,2.2Z"/>
    </g>
  </g>
</svg>