<?xml version="1.0" encoding="UTF-8"?>
<svg id="Layer_2" data-name="Layer 2" xmlns="http://www.w3.org/2000/svg" viewBox="0 0 132.81 146.14">
  <defs>
    <style>
      .cls-1 {
        fill: #31c0cc;
      }

      .cls-1, .cls-2, .cls-3 {
        stroke-width: 0px;
      }

      .cls-2 {
        fill: #fff6d7;
      }

      .cls-3 {
        fill: #ee3124;
      }
    </style>
  </defs>
  <g id="logoer">
    <g>
      <path class="cls-1" d="m40.92,79.71c-.86-1.04-2.42-1.28-3.5-.44-2.72,2.11-5.48,4.02-8.24,5.94-3.66,2.54-7.45,5.16-11.21,8.29-1.06.88-1.2,2.45-.32,3.51h0c.88,1.06,2.45,1.2,3.51.32,3.6-2.99,7.29-5.55,10.87-8.03,2.84-1.97,5.66-3.93,8.47-6.1,1.08-.85,1.28-2.41.44-3.5Z"/>
      <path class="cls-2" d="m107.09,35.28c-.14-2.96-1.72-5.4-4.33-6.68-.28-.14-.58-.22-.88-.25-1.8-1.06-3.83-1.17-5.7-.28-2.95,1.41-5.17,5.25-5.29,9.16-.07,2.24.57,4.21,1.8,5.68.56.67,1.24,1.23,2.04,1.67,2.48,1.38,5.26,1.32,7.65-.16,2.94-1.82,4.87-5.58,4.7-9.13Zm-7.33,4.89c-.86.53-1.68.54-2.59.04-1.11-.63-1.31-1.89-1.27-2.84.06-2.18,1.34-4.28,2.45-4.81.29-.14.63-.24,1.24.22.41.32.89.48,1.37.5.73.5,1.11,1.23,1.15,2.22.08,1.74-.95,3.78-2.35,4.65Z"/>
      <path class="cls-2" d="m88.51,22.95c-.87-3.48-3.31-5.96-6.75-6.89-.23-.18-.5-.32-.8-.42-4.3-1.31-8.59,1.4-10.67,6.73-1.61,4.11-1.56,9.26,1.08,12.42.67.8,1.52,1.48,2.54,1.97,3.67,1.77,7.47,1.41,10.43-1,3.55-2.89,5.31-8.28,4.17-12.81Zm-12.43,9.32c-2.25-1.09-2.34-5.03-1.15-8.08.17-.44,1.67-4.08,4.06-3.87.29.22.64.38,1.02.45,1.96.38,3.18,1.52,3.65,3.39.66,2.67-.42,6.06-2.48,7.74-1.45,1.18-3.17,1.31-5.11.37Z"/>
      <path class="cls-2" d="m101.9,67.93c3.41,1.07,7.3,1.33,10.99.72,9.74-1.66,15.93-7.25,18.4-16.63,3.22-12.16,1.31-21.73-5.47-27.66-4.84-4.22-10.49-7.96-15.96-11.59-2.49-1.65-4.96-3.29-7.3-4.94-5.99-4.21-13.93-8.89-22.33-7.63-11.7,1.75-17.72,11.05-22.07,19.91-1.94,3.95-3.38,8.12-4.76,12.14-1.26,3.66-2.44,7.1-3.98,10.42l-.43.93c-2.53,5.42-5.4,11.57-6.08,17.65-.29,2.64.61,5.42,2.28,7.41.54.64,1.15,1.2,1.83,1.64,1.89,1.24,4.09,1.53,6.25.88.6,1.11,1.39,2.08,2.36,2.76.88.61,2.51,1.39,4.71.86.61,1.33,1.43,2.52,2.48,3.35,1.78,1.42,3.97,1.72,6.21.9.64.66,1.44,1.17,2.4,1.53,6.14,2.3,11.31-2.58,14.73-5.81l.46-.44c1.18-1.11,2.53-3.13,4.1-5.48,1.19-1.77,3.07-4.59,4.12-5.6.7.4,1.84,1.28,2.58,1.85,1.58,1.22,3.08,2.37,4.49,2.82Zm-7.37-9.82c-2.54.06-4.48,2.78-7.96,7.99-1.23,1.83-2.62,3.9-3.37,4.62l-.47.44c-3.46,3.27-6.57,5.89-9.56,4.76-.58-.22-.71-.48-.79-.74-.81-2.66,2.34-9,9.36-18.85.56-.78.99-1.39,1.26-1.8.76-1.15.43-2.7-.7-3.46-1.15-.77-2.7-.45-3.46.7-.25.38-.65.94-1.17,1.66-5.46,7.65-10.39,15.39-10.39,20.96-.83.31-1.18.03-1.37-.12-1.73-1.46-2.58-6.67-1.74-8.99,1.51-4.19,5.81-11.43,8.5-13.59,1.07-.87,1.24-2.43.38-3.51l-.03-.04c-.87-1.04-2.42-1.19-3.48-.34-3.81,3.07-8.43,11.26-10.06,15.77-.58,1.62-.76,3.99-.47,6.4-.31.04-.45-.06-.54-.12-1.59-1.14-2.5-6.09-2.08-8.89.52-3.41,2.57-6.67,4.54-9.81,1.13-1.8,2.19-3.5,2.95-5.19.56-1.25.02-2.73-1.26-3.29-1.25-.56-2.73,0-3.29,1.26-.62,1.37-1.59,2.93-2.62,4.57-2.14,3.41-4.56,7.27-5.24,11.71-.23,1.53-.23,3.87.21,6.24-.7.18-1.33.07-1.93-.32-1.23-.81-2.07-2.72-1.89-4.34.58-5.26,3.27-11.01,5.63-16.08l.44-.94c1.64-3.55,2.93-7.28,4.17-10.9,1.34-3.88,2.71-7.89,4.52-11.57,3.97-8.09,8.94-15.77,18.33-17.17,6.65-1,13.49,3.09,18.72,6.77,2.38,1.67,4.88,3.33,7.42,5.01,5.33,3.54,10.85,7.19,15.43,11.19.58.5,1.1,1.04,1.57,1.6,4.93,5.88,4.07,14.53,2.36,21.03-1.95,7.42-6.67,11.67-14.4,12.98-2.91.48-5.99.29-8.67-.56-.57-.17-1.99-1.27-2.94-2-2.16-1.66-4.02-3.1-5.92-3.06Z"/>
      <path class="cls-3" d="m28.62,58.37c-.25-1.35-1.54-2.26-2.89-2.02-8.28,1.46-16.77,4.58-23.58,7.09-1.29.48-1.95,1.91-1.48,3.2.11.28.25.53.43.74.66.78,1.76,1.11,2.77.74,6.63-2.44,14.88-5.47,22.72-6.86,1.36-.24,2.26-1.53,2.03-2.89Z"/>
      <path class="cls-1" d="m23.18,32.38c-4.64-1.06-9.49-1.27-14.18-1.48-2.1-.09-4.21-.18-6.3-.35-1.37-.11-2.57.91-2.69,2.29-.05.68.17,1.32.58,1.8s1.02.83,1.71.88c2.15.17,4.32.27,6.48.36,4.68.2,9.09.4,13.29,1.36,1.34.3,2.68-.53,2.99-1.88.31-1.34-.53-2.68-1.88-2.99Z"/>
      <path class="cls-1" d="m60.04,114.45c4.15-4.63,8.07-9,10.84-13.35.74-1.16.4-2.69-.77-3.44-1.16-.74-2.7-.4-3.44.77-2.54,4.01-6.33,8.23-10.34,12.69-3.96,4.41-8.05,8.97-11.09,13.55-.63.94-.53,2.16.17,2.98.15.18.33.34.53.48,1.15.76,2.7.45,3.46-.7,2.84-4.28,6.81-8.7,10.65-12.98Z"/>
      <path class="cls-1" d="m92.29,116.07c.5-1.28-.13-2.72-1.41-3.24-1.28-.5-2.73.13-3.24,1.41-3.06,7.8-7.36,19.27-9.38,28.89-.16.78.06,1.55.53,2.11.35.41.83.72,1.4.84,1.35.28,2.67-.58,2.95-1.93,1.93-9.25,6.14-20.46,9.14-28.09Z"/>
    </g>
  </g>
</svg>