<?xml version="1.0" encoding="UTF-8"?>
<svg id="Layer_2" data-name="Layer 2" xmlns="http://www.w3.org/2000/svg" viewBox="0 0 295.43 145.39">
  <defs>
    <style>
      .cls-1 {
        fill: #fff6d7;
        stroke-width: 0px;
      }
    </style>
  </defs>
  <g id="logoer">
    <g>
      <path class="cls-1" d="m143.12,126.52c-.88,0-1.65.67-1.69,1.56-.09,2.24-.29,4.42-.49,6.6-.26,2.89-.54,5.88-.55,9.07,0,.9.72,1.63,1.62,1.63h0c.9,0,1.62-.72,1.63-1.62.01-3.05.28-5.96.54-8.79.21-2.24.41-4.47.5-6.78.03-.9-.67-1.65-1.56-1.69Z"/>
      <path class="cls-1" d="m148.63,74.88c-1.54-1.17-3.42-1.4-5.15-.64-.19.08-.36.2-.49.33-1.28.45-2.19,1.43-2.52,2.73-.53,2.06.46,4.78,2.36,6.47,1.09.97,2.34,1.48,3.59,1.48.57,0,1.14-.1,1.69-.32,1.73-.66,2.86-2.08,3.12-3.89.32-2.23-.75-4.77-2.59-6.17Zm-.63,5.71c-.1.65-.43,1.07-1.07,1.31-.78.29-1.49-.14-1.95-.55-1.06-.94-1.57-2.46-1.37-3.23.05-.21.14-.42.63-.53.33-.07.61-.24.83-.47.56-.16,1.08-.04,1.59.36.9.69,1.49,2.06,1.34,3.12Z"/>
      <path class="cls-1" d="m134.7,79c-2.1-1.02-4.36-.84-6.27.49-.19.04-.37.11-.54.23-2.45,1.6-2.9,4.87-1.1,8.15,1.38,2.52,3.97,4.66,6.65,4.66.68,0,1.37-.14,2.05-.44,2.42-1.09,3.83-3.14,3.86-5.62.04-2.98-1.91-6.11-4.65-7.45Zm-.55,10.11c-1.48.67-3.49-.94-4.52-2.81-.15-.27-1.34-2.54-.23-3.65.23-.05.46-.16.65-.32,1.01-.82,2.09-.95,3.22-.4,1.61.78,2.85,2.75,2.83,4.48-.02,1.22-.67,2.13-1.95,2.71Z"/>
      <path class="cls-1" d="m162.76,91.14c1.96-1.25,3.72-3.09,4.96-5.18,3.25-5.56,3.05-10.99-.6-16.15-4.72-6.7-10.3-9.75-16.1-8.85-4.13.65-8.37,1.9-12.47,3.12-1.87.55-3.72,1.1-5.52,1.58-4.61,1.23-10.27,3.23-13.15,7.96-4.02,6.57-1.9,13.47.7,19.35,1.16,2.63,2.64,5.09,4.07,7.46,1.3,2.16,2.52,4.19,3.54,6.35l.28.6c1.65,3.53,3.51,7.54,6.27,10.42,1.2,1.25,2.96,1.96,4.65,1.96.54,0,1.08-.07,1.59-.23,1.41-.42,2.48-1.4,3.06-2.75.81.17,1.62.18,2.36-.02.67-.18,1.74-.67,2.4-1.99.92.25,1.86.34,2.71.17,1.45-.29,2.52-1.26,3.05-2.73.6-.04,1.19-.23,1.77-.56,3.72-2.1,3.44-6.73,3.26-9.79l-.03-.41c-.06-1.05-.5-2.57-1.02-4.34-.39-1.33-1.01-3.46-1.07-4.4.5-.18,1.41-.38,2-.51,1.27-.28,2.47-.54,3.29-1.06Zm-7.99-.43c-1.03,1.3-.49,3.4.65,7.32.4,1.38.85,2.94.9,3.62l.03.42c.18,3.1.19,5.74-1.62,6.77-.35.2-.54.15-.7.08-1.67-.71-3.52-4.94-5.49-12.56-.16-.6-.28-1.08-.37-1.38-.25-.86-1.17-1.35-2.02-1.1-.86.25-1.35,1.16-1.1,2.02.08.28.2.72.34,1.28,1.53,5.93,3.34,11.63,6.12,13.96-.19.54-.48.6-.63.63-1.45.25-4.41-1.5-5.22-2.89-1.46-2.51-3.27-7.68-3.23-9.93.02-.9-.7-1.64-1.59-1.66h-.03c-.88,0-1.61.71-1.63,1.59-.06,3.19,2.1,8.92,3.67,11.62.56.97,1.67,2.05,3,2.91-.11.17-.22.2-.29.22-1.23.32-4.09-1.3-5.31-2.69-1.48-1.69-2.25-4.07-3-6.37-.43-1.32-.83-2.56-1.36-3.65-.39-.81-1.36-1.15-2.17-.75-.81.39-1.14,1.36-.75,2.17.43.88.8,2.02,1.19,3.23.81,2.49,1.72,5.32,3.65,7.52.66.76,1.84,1.73,3.2,2.51-.2.42-.52.7-.97.83-.92.27-2.23-.1-2.96-.87-2.38-2.49-4.13-6.24-5.67-9.55l-.28-.61c-1.09-2.31-2.41-4.51-3.69-6.64-1.38-2.29-2.81-4.66-3.89-7.1-2.38-5.37-4.13-11.07-.9-16.34,2.28-3.74,7.19-5.44,11.22-6.51,1.83-.49,3.71-1.04,5.61-1.61,4-1.18,8.13-2.41,12.05-3.02.5-.08.98-.11,1.46-.11,5,0,8.96,4.05,11.48,7.62,2.89,4.08,3.03,8.21.45,12.62-.98,1.66-2.36,3.11-3.91,4.09-.32.21-1.47.46-2.23.63-1.73.38-3.23.71-4.01,1.68Z"/>
      <path class="cls-1" d="m127.31,123.73c-.78-.44-1.77-.18-2.22.6-2.74,4.75-4.73,10.29-6.33,14.74-.3.84.13,1.77.98,2.08.18.06.37.1.55.1.67,0,1.29-.41,1.53-1.08,1.56-4.33,3.5-9.72,6.09-14.22.45-.78.18-1.77-.6-2.22Z"/>
      <path class="cls-1" d="m112.06,115.57c-2.47,1.87-4.61,4.21-6.68,6.46-.93,1.01-1.85,2.03-2.81,3-.63.64-.62,1.67.02,2.3.32.31.73.47,1.14.47s.84-.16,1.16-.49c.99-1,1.94-2.04,2.89-3.08,2.06-2.25,4.01-4.37,6.24-6.07.71-.54.86-1.56.31-2.28-.54-.72-1.56-.86-2.28-.31Z"/>
      <path class="cls-1" d="m288.4,51.63c-2.29-.58-5.8-.41-8.09,1.37-1.36,1.06-2.09,2.53-2.09,4.25,0,1.85,1.5,4.6,3.45,5.37,1.27.52,2.56.2,3.56-.85.62-.65.6-1.64-.05-2.26-.65-.62-1.66-.56-2.29.1-.46-.11-1.42-1.59-1.42-2.36,0-.71.26-1.24.83-1.68,1.3-1.02,3.71-1.19,5.29-.79,4.39,1.11,4.66,4.93,4.57,6.52-.2,3.64-2.79,7.73-6.77,8.28-2.98.42-6.63-1.03-9.52-3.76-2.86-2.7-4.42-6.08-4.17-9.06.44-5.42,4.57-8.04,9.19-10.59,1.91-.51,3.74-1.47,5.44-2.84,4.34-3.51,7.46-9.7,7.77-15.41.44-8.43-1.8-15.14-6.85-20.49-10.1-10.71-33.67-5.89-38.29-4.82-9.8,2.28-20.84,8.12-32.82,17.36-2.46,1.9-4.96,4.23-7.28,6.86-.03-2.35-.48-4.78-1.37-7.21-2.62-7.13-9.44-14.29-18.79-14.29h-.11c-9.63.05-21.96,11.92-25.57,19.89-5.19,11.44-2.37,25.84,7.18,36.69,2.06,2.35,5.8,4.92,9.63,6.08.12.17.28.31.47.42,1.18.71,2.41,1.38,3.64,2.05,3.64,1.98,7.4,4.03,10.09,7.4,1.9,2.38,2.55,5.91,1.71,9.21-.77,3-2.64,5.34-5.16,6.4-2.54,1.08-5.31.14-6.52-1.39-1.07-1.35-.94-3.07.36-4.83.94-1.29,4.39-2.92,5.34-2.28.19.13.38.31.37.75,0,.38-.16.74-.31.98-.52-.29-1.18-.29-1.71.06-.75.5-.95,1.51-.44,2.25.62.93,1.61,1.37,2.63,1.15,1.57-.31,2.7-2.02,3-3.54.35-1.78-.29-3.41-1.72-4.36-2.93-1.97-8.16.85-9.77,3.06-2.17,2.97-2.28,6.24-.28,8.77,1.58,2,4.11,3.09,6.73,3.09,1.21,0,2.44-.23,3.61-.73,3.46-1.46,6.03-4.59,7.04-8.59,1.1-4.33.23-8.83-2.32-12.04-2.83-3.55-6.46-5.7-10.07-7.68,2.05-.7,4.48-2.53,5.2-7.19.34-2.19-.5-4.82-2.15-6.7-1.37-1.57-3.11-2.34-4.93-2.38-1.93.03-3.43.97-4.09,2.58-.64,1.56-.33,3.49.74,4.61.84.87,2.03,1.14,3.16.71.83-.31,1.22-1.21.93-2.04-.26-.75-1.03-1.2-1.83-1.06-.09-.21-.15-.61,0-.97.06-.16.23-.57,1.15-.58,1.06-.06,2,.79,2.43,1.27,1.01,1.16,1.58,2.83,1.39,4.07-.41,2.63-1.47,4.16-3.24,4.67-3.82,1.14-10.02-2.44-12.61-5.38-8.71-9.89-11.32-22.92-6.66-33.2,3.21-7.07,14.62-17.94,22.63-17.99,7.85-.11,13.59,6.07,15.83,12.16,1.47,4,1.56,7.91.37,11.28-1.05,1.53-2.01,3.12-2.85,4.74-.42.46-.88.9-1.38,1.32-3,2.51-7.13,3.7-9.82,2.84-1.69-.55-2.82-1.89-3.35-3.98-.7-2.75-.52-4.67.49-5.13,1.11-.52,3.14.35,3.85,1.36.28.4.19.5.04.65-.63.64-.63,1.67,0,2.3.64.64,1.67.62,2.3,0,1.33-1.34,1.45-3.18.32-4.8-1.51-2.17-5.2-3.68-7.87-2.46-1.52.7-3.84,2.77-2.28,8.88,1.03,4.05,3.56,5.65,5.5,6.27,3.15,1.02,6.74.21,9.72-1.34-.86,2.76-1.3,5.55-1.18,8.27.28,6.4,3.49,11.62,9.55,15.51,7.04,4.52,21.16,6.27,28.13-1.14,4.07-4.33,6.01-10.81,4.7-15.75-.69-2.6-2.55-6.03-7.51-7.57-3.35-1.03-7.29-.64-10.29,1.03-2.36,1.32-3.95,3.31-4.58,5.76-.56,2.16.16,4.48,1.89,6.04,1.44,1.3,3.24,1.76,4.7,1.22.78-.29,2.14-1.13,2.43-3.49.11-.89-.52-1.7-1.41-1.82-.88-.13-1.7.51-1.82,1.41-.07.52-.22.8-.34.84-.21.08-.8-.05-1.39-.59-.31-.28-1.3-1.32-.92-2.81.51-1.98,1.92-3.12,3.02-3.73,2.22-1.23,5.25-1.54,7.74-.76,2.85.88,4.64,2.67,5.34,5.3,1.03,3.92-.58,9.14-3.93,12.7-5.29,5.63-17.26,4.97-24.01.63-5.12-3.29-7.83-7.63-8.06-12.92-.17-3.93,1.07-8.17,3.16-12.27,1.25-1.46,2.22-3.09,2.91-4.85,2.97-4.32,6.72-8.24,10.49-11.15,11.6-8.95,22.22-14.59,31.57-16.76,11.93-2.77,28.31-3.41,35.19,3.88,4.41,4.68,6.36,10.6,5.97,18.09-.26,4.84-2.9,10.09-6.57,13.06-.34.27-.71.55-1.13.82-.37-.07-.73,0-1.07.19l-1.71.94c-.22.12-.44.24-.66.36-1.16.27-2.45.36-3.87.14-4.59-.72-11.74-7.29-12.08-12.25-.08-1.11.25-2.04.99-2.86,1.79-1.96,5.67-2.92,8.72-2.99,1.68-.04,4.67.16,5.25,2,.43,1.37-.54,3.53-2.04,4.53-1.24.82-1.9.27-2.11.08-.68-.58-1.7-.5-2.29.18-.58.68-.5,1.71.18,2.29,1.71,1.46,3.96,1.52,6.02.16,2.42-1.6,4.33-5.11,3.35-8.21-.52-1.66-2.3-4.41-8.43-4.28-3.63.09-8.44,1.2-11.04,4.05-1.33,1.47-1.97,3.29-1.83,5.27.43,6.31,8.14,13.63,14.02,15.07-3.15,2.34-5.69,5.41-6.07,10.2-.32,3.95,1.61,8.31,5.17,11.68,3.64,3.44,8.21,5.18,12.2,4.62,5.85-.81,9.3-6.44,9.57-11.32.27-4.9-2.41-8.68-7.01-9.85Z"/>
      <path class="cls-1" d="m129.85,37.52c.37-8.74.74-17.79-4.63-25.6-5.69-8.28-18.08-9.55-23.14-9.72l-.92-.03c-6.21-.21-13.93-.48-19.64,3.24-4.43,2.9-8.98,9.64-10.12,15.77-1.97-2.77-4.26-5.47-7.04-7.72l-1.54-1.26c-4.23-3.45-8.6-7.02-13.79-9.21C43.79.8,38.66-.14,32.92.02c-3.12.09-5.74.48-8.42,2.09-1.03.62-2.14,1.23-3.26,1.84-2.54,1.4-5.16,2.84-7.34,4.59-3.33,2.67-6.59,6.99-8.23,9.33C3.52,20.93-.08,26.73,0,31.13c.07,3.85,2.68,6.6,4.98,9.03.42.44.83.88,1.22,1.31,2.72,3.05,6.12,4.82,9.95,5.27.19.15.42.25.67.29,4.68.87,9.66,4.23,9.56,9.56-.07,3.54-1.76,8.5-4.77,10.7-1.52,1.11-3.15,1.39-4.99.85-1.79-.53-3.33-2.62-3.68-4.96-.17-1.14-.16-3.24,1.72-4.47.79-.52,2.8-.57,3.6-.1.28.17.39.55.42.85-.14.13-.27.29-.36.47-.41.8-.1,1.78.7,2.19.92.47,2.01.12,2.53-.83.75-1.34.48-4.2-1.62-5.46-1.85-1.11-5.21-1.03-7.04.16-2.45,1.59-3.63,4.45-3.16,7.66.52,3.6,2.98,6.73,5.97,7.61,2.79.83,5.5.36,7.83-1.34,4.07-2.98,6.02-8.96,6.1-13.26.09-4.76-2.64-8.33-6.22-10.53.84-.22,1.69-.5,2.55-.82,5.63-2.14,14.01-10.67,13.6-17.6-.16-2.61-1.59-6.03-7.54-7.51-4.17-1.04-7.62.61-8.99,4.33-1.13,3.08-.69,5.62,1.18,6.82,1.26.81,2.28.75,2.91.56.58-.18,1.39-.63,1.89-1.77.36-.82-.03-1.74-.86-2.1-.75-.34-1.62-.02-2.05.66-.04-.02-.09-.05-.14-.09-.44-.28-.39-1.58.12-2.96,1.05-2.85,3.68-2.66,5.15-2.29,4.89,1.22,5.03,3.73,5.08,4.55.29,4.85-6.45,12.45-11.51,14.37-4.62,1.75-11.17,2.65-16.19-2.96-.41-.46-.84-.91-1.28-1.38-1.99-2.1-4.04-4.26-4.09-6.85-.05-2.5,1.85-6.74,5.08-11.33,1.25-1.77,4.49-6.16,7.61-8.67,1.96-1.57,4.46-2.95,6.87-4.28,1.15-.63,2.29-1.26,3.36-1.9,2.08-1.25,4.16-1.55,6.84-1.63,5.33-.15,9.9.68,14.75,2.72,4.76,2,8.94,5.42,12.99,8.73l1.56,1.27c3.93,3.17,6.87,7.46,9.31,11.48.76,2.78,2.31,5.23,4.49,7.13,1.25,2.05,2.22,4.09,2.57,6.7.54,3.96.82,9.61-.87,13.96-2.41,6.19-11.45,15.89-18,13.41-2.37-.89-3.59-2.46-3.64-4.66-.08-3.42,2.76-7.67,6.07-9.08,2.54-1.09,3.3-.05,3.55.29,1.08,1.45.84,4.32-.14,5.49-.33.4-.65.56-1.34.22-.8-.4-1.78-.07-2.18.73-.4.81-.07,1.78.73,2.18,1.95.97,3.92.58,5.28-1.05,2.03-2.43,2.15-6.97.25-9.52-.77-1.03-3.03-3.22-7.44-1.33-4.54,1.95-8.14,7.39-8.04,12.14.08,3.56,2.12,6.27,5.75,7.63,9.15,3.47,19.45-8.28,22.18-15.28,1.94-5,1.65-11.23,1.06-15.57-.16-1.2-.43-2.3-.78-3.33,4.31,1.58,9.11,1.3,13.21-.83,6.39-3.32,10.35-9.98,9.85-16.56-.36-4.82-3.56-7.65-8.42-7.78-3.59,0-6.38,1.48-7.67,4.04-.67,1.32-1.19,4.86-.04,6.69.5.8,1.33,1.26,2.19,1.23.9-.02,1.61-.76,1.59-1.66-.01-.71-.48-1.3-1.11-1.51-.2-.75-.07-2.61.27-3.29.99-1.97,3.5-2.27,4.82-2.25,3.13,0,4.9,1.65,5.13,4.77.4,5.3-2.86,10.7-8.11,13.43-3.73,1.94-8.4,1.91-12.18-.04-.74-.39-1.43-.84-2.06-1.34-.42-.67-.85-1.32-1.29-1.99-.63-.96-1.28-1.95-1.91-3.01-.24-.41-.49-.83-.74-1.24-.09-.37-.15-.74-.2-1.12-.74-5.53,4.25-13.94,8.85-16.95,4.84-3.16,11.7-2.93,17.74-2.71l.92.03c4.57.15,15.72,1.26,20.57,8.31,4.76,6.92,4.41,15.41,4.07,23.63-.41,9.8-4.56,16.75-9.94,24.82-1.94,2.9-5.44,6.68-9.01,8.85-.33.03-.65.17-.91.41-.1.09-.19.17-.29.26-1.25.62-2.48,1.02-3.64,1.08-1.7.12-3.14-.58-4.35-2.04-1.48-1.78-1.28-4.44-.59-6.33,1-2.82,2.26-2.83,3.36-2.63.53.1,1.15.69,1.59,1.5.46.86.51,1.6.63,1.63,0,0-.1.03-.33-.03-.89-.17-1.73.41-1.91,1.29-.17.88.4,1.74,1.28,1.91,1.83.34,2.82-.43,3.26-.93.87-1.01,1.02-2.57.42-4.3-.59-1.7-2.09-3.83-4.34-4.25-2.29-.43-5.35.05-7.02,4.73-.98,2.74-1.2,6.67,1.15,9.5,1.42,1.72,3.18,2.77,5.15,3.11-.26.19-.52.38-.79.58-6.28,4.63-12.78,9.43-14.99,17.71-.9,3.35-.12,6.73,2.14,9.27,2.1,2.37,5.17,3.69,8.44,3.69.57,0,1.15-.04,1.74-.12,3.67-.52,7.38-3.4,9.03-6.99,1.27-2.77,1.15-5.58-.35-7.91-1.22-1.9-3.74-3.36-6-3.47-1.58-.09-2.96.5-3.87,1.65-1.49,1.88-1.02,4.52.05,6.17,1.1,1.7,2.33,1.61,2.81,1.48.44-.11,1.48-.56,1.61-2.26.07-.9-.61-1.63-1.5-1.7-.17-.02-.34,0-.51.04-.19-.57-.27-1.27.09-1.71.1-.13.37-.5,1.16-.43,1.32.07,2.86,1.1,3.43,1.97,1.12,1.76.69,3.58.13,4.8-1.17,2.56-3.98,4.76-6.53,5.13-2.81.4-5.55-.54-7.29-2.5-1.54-1.74-2.05-3.97-1.43-6.28,1.92-7.17,7.95-11.62,13.78-15.93,2.05-1.51,4.16-3.07,6.07-4.73,4.57-2.43,8.8-7.03,11.04-10.39,5.67-8.49,10.04-15.84,10.48-26.49Z"/>
      <path class="cls-1" d="m168.47,131.51c-.57-4.01-1.11-7.8-2.13-11-.27-.85-1.17-1.32-2.04-1.06-.85.27-1.33,1.18-1.06,2.04.94,2.95,1.46,6.61,2.01,10.48.55,3.82,1.11,7.78,2.12,11.21.21.71.86,1.16,1.56,1.16.15,0,.31-.02.46-.07.86-.25,1.35-1.16,1.1-2.02-.95-3.21-1.5-7.04-2.02-10.75Z"/>
      <path class="cls-1" d="m182.78,116.09c-.43-.79-1.42-1.07-2.21-.65-.79.43-1.08,1.42-.65,2.21,2.61,4.79,6.54,11.74,10.5,16.78.32.41.8.62,1.28.62.35,0,.71-.11,1.01-.35.7-.56.83-1.57.27-2.28-3.81-4.84-7.64-11.63-10.2-16.32Z"/>
    </g>
  </g>
</svg>