<?xml version="1.0" encoding="UTF-8"?>
<svg id="Layer_2" data-name="Layer 2" xmlns="http://www.w3.org/2000/svg" viewBox="0 0 111.91 110.73">
  <defs>
    <style>
      .cls-1 {
        fill: #fff6d7;
        stroke-width: 0px;
      }
    </style>
  </defs>
  <g id="logoer">
    <g id="snerle2">
      <path class="cls-1" d="m106.94,29.15c2.75,2.17,6.01,7.04,4.64,11.05-1.76,5.14-7.52,10.83-12.57,12.44-1.83.58-4.49.44-6.78-.45,4.61,6.5,6.97,12.6,7.33,18.84.48,8.22-.27,16.4-8.95,20.61-2.13,1.03-4.52,1.77-6.94,2.09-5.59,1.4-11.9,4.52-13.91,8.55-.8,1.61-.19,3.13.25,3.9.96,1.67,2.8,2.87,4.6,2.99,2.03.14,7.34-1.78,8.7-4.33.48-.9.38-1.73-.31-2.61-.74-.95-1.4-1.23-1.94-.83-.69.51-.92,1.66-.69,1.86.42-.07.82.2.9.62.08.42-.2.82-.62.9-.85.15-1.54-.23-1.81-.99-.44-1.24.36-3.13,1.61-3.82.58-.32,2.11-.83,3.78,1.32,1.06,1.36,1.21,2.84.45,4.28-1.73,3.25-7.71,5.31-10.16,5.15-2.33-.16-4.62-1.64-5.84-3.77-1.01-1.76-1.11-3.71-.29-5.36,1.75-3.5,5.99-6.16,10.32-7.88-3.35-.51-6.42-2.09-8.5-5.17-3.45-5.1-1.33-11.15,2.29-14.89,3.8-3.91,10.08-6.31,15.55-2.83,2.34,1.48,3.54,4.06,3.29,7.08-.23,2.84-1.72,5.33-3.7,6.18-1.45.62-3.05.32-4.49-.85-.33-.27-.38-.76-.11-1.09.27-.33.76-.38,1.09-.11,1,.81,1.98,1.02,2.91.63,1.45-.62,2.59-2.63,2.77-4.88.09-1.15.03-4-2.58-5.65-4.74-3.01-10.25-.86-13.62,2.61-2.96,3.04-5.29,8.26-2.12,12.95,2.69,3.97,7.3,5.1,11.87,4.53.21-.05.42-.1.62-.15.12-.03.24-.03.36,0,1.95-.34,3.87-.98,5.6-1.82,7.43-3.6,8.6-10.26,8.08-19.13-.46-7.75-4.18-15.34-11.72-23.89-8.04-9.12-17.01-18.61-28.15-26.28C44.64,11.67,29.73,3.61,19.68,12.06c-.01.19-.09.37-.24.51-.65.63-1.31,1.2-1.97,1.7-.1.12-.2.24-.3.37-1.37,1.71-2.97,3.87-4.45,6.29.03.13.02.28-.03.42-1.22,3.29-1.91,5.55-1.03,9.11.51,2.08.97,3.49,2.71,4.27,1.23.55,5.45,2.22,8.35.65,2.6-1.42,4.5-3.86,4.72-6.08.15-1.55-.49-2.94-1.9-4.12-1.35-1.13-4.15-1.18-5.64-.1-.9.66-1.12,1.58-.65,2.75.18.45.62.83.85.85.08,0,.17-.13.21-.21.22-.37.69-.49,1.06-.28.37.22.49.69.28,1.06-.53.91-1.27,1-1.66.97-.97-.07-1.82-.97-2.17-1.82-.74-1.83-.31-3.5,1.18-4.58,2.06-1.49,5.65-1.41,7.53.16,1.8,1.51,2.65,3.4,2.44,5.46-.27,2.74-2.44,5.6-5.52,7.28-3.42,1.86-7.93.2-9.72-.6-2.37-1.06-3.02-3.03-3.58-5.31-.38-1.57-.5-2.91-.42-4.18-2.04,4.8-3,10.02-1.07,14.66,3.27,7.86,15.22,12.33,23.89,11.43,6.76-.71,15.33-3.87,19.12-10.65,1.69-3.02,3.09-7.19.18-9.95-1.91-1.81-6.24-2.29-9.09-1.01-1.21.54-2.63,1.65-2.56,3.8.06,1.73.89,2.72,1.68,2.82.78.09,1.5-.71,1.87-2.1.11-.41.53-.66.95-.55.41.15.66.53.55.94-.69,2.6-2.28,3.38-3.53,3.23-1.71-.19-2.98-1.96-3.05-4.3-.08-2.35,1.15-4.22,3.47-5.26,3.4-1.53,8.44-.93,10.78,1.3,2.87,2.72,2.91,6.81.11,11.82-.44.79-.94,1.53-1.49,2.23,1.31-.6,2.67-1.08,4.06-1.37,5.2-1.06,8.85-.61,10.87,1.34,3.02,2.93,2.34,8.77-.23,11.65-1.52,1.7-3.76,2.28-5.9,1.51-2.15-.78-3.54-2.68-3.62-4.98-.09-2.19,1.25-4.09,3.18-4.51,1.22-.27,2.85.49,3.43,1.6.42.8.24,1.68-.47,2.35-.31.29-.8.27-1.09-.04-.29-.31-.28-.8.04-1.09.28-.27.21-.4.16-.5-.25-.48-1.2-.93-1.74-.81-1.36.3-2.02,1.71-1.97,2.95.07,1.97,1.39,3.14,2.6,3.58,1.18.43,2.92.37,4.23-1.08,2.11-2.36,2.67-7.21.31-9.51-1.61-1.56-4.89-1.88-9.49-.94-3.41.7-6.59,2.71-9.67,4.65l-.61.39c-.12.08-.26.11-.39.12-3.97,2.26-8.54,3.49-12.5,3.91-9.21.96-21.94-3.88-25.47-12.37-3.58-8.61,1.82-18.79,6.6-25.44-2.22.96-4.43,1.22-6.6.77-3.23-.67-5.59-2.28-6.64-4.53-.98-2.09-.76-4.58.64-7.19C3.26,1.74,9.39-.5,13.3.09c2.25.34,3.72,1.74,4.04,3.84.4,2.66-1.22,5.58-3.77,6.81-1.96.94-4.19-.05-5.05-1.57-.62-1.1-.66-2.82,1.25-4.07.35-.23.83-.13,1.07.23.23.36.13.83-.22,1.07-.9.59-1.16,1.29-.75,2.02.5.89,1.87,1.5,3.03.94,2.16-1.04,3.18-3.45,2.92-5.19-.21-1.4-1.19-2.3-2.74-2.54-3.33-.5-8.81,1.53-10.47,4.63-1.16,2.16-1.37,4.17-.6,5.8.84,1.8,2.81,3.1,5.56,3.67,2.86.6,5.82-.27,8.85-2.57,12.27-14.34,33.49.26,42.62,6.54,11.28,7.76,20.33,17.34,28.43,26.53.29.33.58.67.87,1,.02,0,.04-.02.07-.02.4-.13.84.09.98.49,1.02,3.09,6.44,4.36,9.18,3.5,4.65-1.48,9.96-6.73,11.58-11.47,1.01-2.95-1.36-7.15-4.13-9.34-2.21-1.75-5.89-2.47-8.95-1.77-1.57.36-3.67,1.26-4.72,3.44-.75,1.56-.85,3.33-.28,4.96.59,1.66,1.79,3,3.4,3.77,1.73.82,4.41-.32,5.31-1.8.46-.76.33-1.37-.4-1.92-.34-.26-.41-.74-.16-1.08.26-.34.74-.4,1.08-.16,1.38,1.03,1.67,2.51.8,3.95-1.25,2.07-4.78,3.58-7.29,2.4-1.98-.95-3.47-2.6-4.2-4.65-.71-2.02-.59-4.2.34-6.14,1.03-2.13,3.07-3.65,5.76-4.27,2.19-.51,4.61-.38,6.75.28,1.31.4,2.52,1.01,3.5,1.78Z"/>
    </g>
  </g>
</svg>